<svg xmlns="http://www.w3.org/2000/svg" xmlns:v="https://svgstorm.com"
viewBox = "0 0 588 472"
width="588"
height="472">
<g fill="None" fill-opacity="0.0" stroke="#FBF9F7" stroke-opacity="1.00" stroke-width="0.3"><path d="
M 0.00 472.00 
L 588.00 472.00
L 588.00 0.00
L 0.00 0.00
L 0.00 472.00
M 429.00 15.00 
C 475.98 22.94 518.68 60.60 544.00 100.00
C 523.00 102.18 499.78 97.10 479.00 100.00 C 458.22 102.90 446.57 92.65 430.31 83.69 C 414.04 74.74 397.10 71.64 379.00 69.00
C 335.87 64.83 291.69 69.42 248.00 68.00 C 204.31 66.58 159.77 69.07 116.00 68.00
C 116.00 110.67 116.00 153.33 116.00 196.00
C 116.00 203.56 116.11 211.47 116.00 219.00 C 115.89 226.53 116.29 234.60 116.00 242.00 C 115.71 249.40 116.66 257.90 116.00 265.00 C 115.34 272.10 117.47 281.58 116.00 288.00 C 114.53 294.42 101.43 290.49 96.00 291.00 C 90.57 291.51 78.23 291.71 73.00 291.00 C 67.77 290.29 53.72 293.89 51.00 290.00
C 47.80 285.42 52.36 275.91 51.00 270.00 C 49.64 264.09 51.62 255.50 51.00 249.00 C 50.38 242.50 51.28 234.74 51.00 228.00 C 50.72 221.26 51.13 213.81 51.00 207.00 C 50.87 200.19 51.06 193.87 51.00 187.00 C 50.94 180.13 51.03 172.94 51.00 166.00 C 50.97 159.06 51.01 151.97 51.00 145.00 C 50.99 138.03 51.00 130.99 51.00 124.00 C 51.00 117.01 51.00 109.99 51.00 103.00
C 51.00 70.67 51.00 38.33 51.00 6.00
C 114.25 7.27 181.11 4.30 244.00 6.00 C 306.89 7.70 370.49 -0.95 429.00 15.00
M 556.00 118.00 
C 556.34 118.59 556.71 120.23 557.00 121.00
C 570.24 156.02 584.00 187.87 584.00 227.00
C 584.64 233.61 584.63 241.46 584.00 248.00
C 584.00 284.25 574.52 322.22 557.00 353.00
C 550.13 365.07 543.80 376.85 535.00 388.00
C 522.23 404.18 505.49 420.83 488.00 431.00
C 485.81 432.27 483.27 433.58 481.00 435.00
C 472.10 440.57 461.45 447.53 451.00 450.00
C 450.53 450.11 450.00 450.00 450.00 450.00
C 437.28 460.92 420.39 458.27 404.00 463.00 C 387.60 467.73 365.67 465.64 347.00 466.00 C 328.33 466.36 306.32 465.83 287.00 466.00 C 267.68 466.17 247.64 465.92 228.00 466.00 C 208.36 466.08 187.81 465.96 168.00 466.00 C 148.19 466.04 127.86 465.97 108.00 466.00
C 108.49 460.78 114.51 457.45 118.00 454.00
C 119.66 452.06 121.38 449.89 123.00 448.00
C 125.27 445.35 127.78 442.60 130.00 440.00
C 138.64 429.89 148.00 416.66 159.00 409.00
C 159.23 408.84 159.00 408.00 159.00 408.00
C 164.55 396.66 185.30 404.84 197.00 403.00 C 208.70 401.16 226.87 403.82 240.00 403.00 C 253.13 402.18 269.23 403.36 283.00 403.00 C 296.77 402.64 311.96 403.13 326.00 403.00 C 340.04 402.87 354.89 403.00 369.00 403.00
C 377.72 403.00 385.65 401.33 394.00 400.00
C 404.49 398.33 414.09 394.57 424.00 391.00
C 444.33 379.91 464.64 365.70 480.00 347.00
C 483.32 342.26 486.25 336.70 490.00 332.00
C 492.99 327.02 495.35 322.41 497.92 316.92 C 500.50 311.44 502.89 305.89 504.93 299.93 C 506.96 293.97 508.74 287.44 509.99 280.99 C 511.25 274.55 513.27 267.67 513.93 260.93 C 514.59 254.18 515.24 246.66 515.93 239.93 C 516.61 233.19 515.68 223.69 514.67 217.33 C 513.66 210.97 514.00 201.86 511.67 196.33 C 509.34 190.80 510.82 181.05 507.00 177.00
C 419.50 177.67 330.68 175.67 244.00 178.00
C 252.01 180.20 260.68 182.51 268.00 186.00
C 281.12 189.50 293.91 195.19 307.00 199.00
C 323.45 203.79 340.57 209.34 356.00 216.00
C 362.17 218.66 368.53 220.27 375.00 222.00
C 384.58 224.56 394.38 227.64 403.00 232.00
C 422.37 238.63 443.44 255.92 447.00 277.00
C 449.45 285.09 452.58 298.59 449.00 307.00
C 449.00 307.50 449.01 308.50 449.00 309.00
C 448.92 312.26 447.88 315.33 447.00 318.00
C 444.58 325.36 442.92 335.16 436.00 340.00
C 435.76 340.32 436.00 341.00 436.00 341.00
C 435.67 341.89 435.38 343.20 435.00 344.00
C 428.93 356.80 416.47 360.04 403.98 365.98 C 391.48 371.91 371.91 372.22 356.00 372.00 C 340.09 371.78 319.97 372.22 303.00 372.00 C 286.03 371.78 266.41 372.35 249.00 372.00 C 231.59 371.65 213.59 372.74 196.00 372.00 C 178.41 371.26 159.60 373.59 142.00 372.00
C 140.69 372.97 139.99 373.81 139.00 375.00
C 134.29 380.68 127.60 388.34 121.75 392.75 C 115.91 397.16 110.84 407.95 104.00 410.00
C 94.07 412.97 82.47 408.66 72.00 410.00 C 61.53 411.34 49.72 409.30 39.00 410.00 C 28.28 410.70 16.79 409.48 6.00 410.00
C 11.46 401.44 20.59 394.20 28.00 387.00
C 36.75 378.25 43.87 369.66 53.25 361.25 C 62.63 352.83 69.14 343.54 79.25 335.25 C 89.36 326.95 93.74 313.44 109.00 314.00 C 124.26 314.56 144.72 313.81 161.00 314.00 C 177.28 314.19 195.24 314.07 212.00 314.00 C 228.76 313.93 247.05 314.37 264.00 314.00 C 280.94 313.63 298.02 314.94 315.00 314.00 C 331.98 313.06 350.10 316.09 367.00 314.00
C 377.01 311.52 383.78 302.65 380.00 292.00
C 375.87 282.97 359.94 279.72 352.00 277.00
C 323.24 270.09 296.05 258.67 267.93 249.07 C 239.80 239.48 211.20 234.55 184.77 219.23 C 158.34 203.91 160.35 160.01 175.00 138.00
C 180.02 130.46 187.99 124.89 196.00 122.00
C 201.88 119.09 207.04 117.47 214.00 117.00
C 222.55 115.47 231.61 116.04 241.00 116.00 C 250.39 115.96 260.48 116.02 270.00 116.00 C 279.52 115.98 289.43 116.01 299.00 116.00 C 308.57 115.99 318.46 116.00 328.00 116.00 C 337.54 116.00 346.46 115.99 356.00 116.00 C 365.54 116.01 375.43 115.97 385.00 116.00 C 394.57 116.03 404.48 115.94 414.00 116.00 C 423.52 116.06 433.62 115.86 443.00 116.00 C 452.38 116.14 461.88 115.68 471.00 116.00 C 480.12 116.32 491.35 115.32 500.00 116.00 C 508.65 116.68 521.49 114.50 529.00 116.00 C 536.51 117.50 552.40 111.75 556.00 118.00 Z"/>
</g>
<g fill="None" fill-opacity="0.0" stroke="#A0E3F7" stroke-opacity="1.00" stroke-width="0.3"><path d="
M 51.00 103.00 
C 51.00 102.96 52.00 103.00 52.00 103.00
C 52.00 95.33 52.00 87.67 52.00 80.00
C 52.00 55.67 52.00 31.33 52.00 7.00
C 115.15 7.90 181.13 5.80 244.00 7.00 C 306.87 8.20 369.46 1.56 429.00 15.00
C 370.49 -0.95 306.89 7.70 244.00 6.00 C 181.11 4.30 114.25 7.27 51.00 6.00
C 51.00 38.33 51.00 70.67 51.00 103.00 Z"/>
</g>
<g fill="None" fill-opacity="0.0" stroke="#48CCF6" stroke-opacity="1.00" stroke-width="0.3"><path d="
M 52.00 80.00 
C 52.89 89.23 53.41 100.05 53.00 110.00
C 55.24 107.38 52.66 102.47 56.00 100.00
C 61.02 101.01 70.06 99.31 74.30 101.71 C 78.55 104.11 83.75 105.84 90.00 106.00
C 90.74 109.45 94.42 111.28 97.00 113.00
C 102.05 109.76 112.80 111.16 114.00 102.00
C 114.66 107.83 112.68 114.99 115.00 120.00
C 115.00 102.33 115.00 84.67 115.00 67.00
C 159.00 67.48 204.12 66.36 248.00 67.00 C 291.88 67.64 336.47 64.89 379.00 69.00
C 397.10 71.64 414.04 74.74 430.31 83.69 C 446.57 92.65 458.22 102.90 479.00 100.00 C 499.78 97.10 523.00 102.18 544.00 100.00
C 518.68 60.60 475.98 22.94 429.00 15.00
C 369.46 1.56 306.87 8.20 244.00 7.00 C 181.13 5.80 115.15 7.90 52.00 7.00
C 52.00 31.33 52.00 55.67 52.00 80.00 Z"/>
</g>
<g fill="None" fill-opacity="0.0" stroke="#BFECF7" stroke-opacity="1.00" stroke-width="0.3"><path d="
M 115.00 120.00 
C 115.00 145.33 115.00 170.67 115.00 196.00
C 115.00 195.96 116.00 196.00 116.00 196.00
C 116.00 153.33 116.00 110.67 116.00 68.00
C 159.77 69.07 204.31 66.58 248.00 68.00 C 291.69 69.42 335.87 64.83 379.00 69.00
C 336.47 64.89 291.88 67.64 248.00 67.00 C 204.12 66.36 159.00 67.48 115.00 67.00
C 115.00 84.67 115.00 102.33 115.00 120.00 Z"/>
</g>
<g fill="None" fill-opacity="0.0" stroke="#26B1F7" stroke-opacity="1.00" stroke-width="0.3"><path d="
M 52.00 103.00 
C 52.00 130.67 52.00 158.33 52.00 186.00
C 53.40 200.52 53.03 216.75 53.00 232.00
C 55.34 222.03 66.44 224.28 73.00 216.00
C 75.16 216.56 76.20 220.80 76.00 215.00
C 77.55 218.44 82.40 216.00 81.00 221.00
C 88.32 220.00 90.73 227.76 98.00 227.00
C 97.52 224.34 101.53 223.68 101.00 221.00
C 103.59 224.19 104.09 219.92 106.00 223.00
C 105.69 218.68 112.34 216.68 113.00 221.00
C 113.00 215.33 113.00 209.67 113.00 204.00
C 115.33 231.43 113.33 260.82 114.00 289.00
C 114.50 289.00 115.00 289.00 115.00 289.00
C 117.75 258.57 115.00 226.57 115.00 196.00
C 115.00 170.67 115.00 145.33 115.00 120.00
C 112.68 114.99 114.66 107.83 114.00 102.00
C 112.80 111.16 102.05 109.76 97.00 113.00
C 94.42 111.28 90.74 109.45 90.00 106.00
C 83.75 105.84 78.55 104.11 74.30 101.71 C 70.06 99.31 61.02 101.01 56.00 100.00
C 52.66 102.47 55.24 107.38 53.00 110.00
C 53.41 100.05 52.89 89.23 52.00 80.00
C 52.00 87.67 52.00 95.33 52.00 103.00 Z"/>
</g>
<g fill="None" fill-opacity="0.0" stroke="#6BC3F2" stroke-opacity="1.00" stroke-width="0.3"><path d="
M 51.00 290.00 
C 57.65 289.49 65.46 290.68 72.00 290.00 C 78.54 289.32 87.97 291.26 94.00 290.00 C 100.03 288.74 111.01 293.14 115.00 289.00
C 115.00 289.00 114.50 289.00 114.00 289.00
C 93.33 289.00 72.67 289.00 52.00 289.00
C 52.00 254.67 52.00 220.33 52.00 186.00
C 52.00 158.33 52.00 130.67 52.00 103.00
C 52.00 103.00 51.00 102.96 51.00 103.00
C 51.00 109.99 51.00 117.01 51.00 124.00 C 51.00 130.99 50.99 138.03 51.00 145.00 C 51.01 151.97 50.97 159.06 51.00 166.00 C 51.03 172.94 50.94 180.13 51.00 187.00 C 51.06 193.87 50.87 200.19 51.00 207.00 C 51.13 213.81 50.72 221.26 51.00 228.00 C 51.28 234.74 50.38 242.50 51.00 249.00 C 51.62 255.50 49.64 264.09 51.00 270.00 C 52.36 275.91 47.80 285.42 51.00 290.00 Z"/>
</g>
<g fill="None" fill-opacity="0.0" stroke="#E0F5F8" stroke-opacity="1.00" stroke-width="0.3"><path d="
M 214.00 117.00 
C 221.46 116.49 228.47 117.22 236.00 117.00 C 243.53 116.78 251.40 117.10 259.00 117.00 C 266.60 116.90 274.37 117.04 282.00 117.00 C 289.64 116.96 297.35 117.02 305.00 117.00 C 312.65 116.98 320.36 117.01 328.00 117.00 C 335.64 116.99 343.38 117.00 351.00 117.00 C 358.62 117.00 366.42 117.00 374.00 117.00 C 381.58 117.00 388.43 116.99 396.00 117.00 C 403.57 117.01 411.40 116.97 419.00 117.00 C 426.60 117.03 434.41 116.94 442.00 117.00 C 449.59 117.06 457.48 116.87 465.00 117.00 C 472.52 117.13 480.64 116.71 488.00 117.00 C 495.36 117.29 504.01 116.37 511.00 117.00 C 517.99 117.63 527.83 115.60 534.00 117.00 C 540.17 118.40 551.99 113.41 556.00 118.00
C 552.40 111.75 536.51 117.50 529.00 116.00 C 521.49 114.50 508.65 116.68 500.00 116.00 C 491.35 115.32 480.12 116.32 471.00 116.00 C 461.88 115.68 452.38 116.14 443.00 116.00 C 433.62 115.86 423.52 116.06 414.00 116.00 C 404.48 115.94 394.57 116.03 385.00 116.00 C 375.43 115.97 365.54 116.01 356.00 116.00 C 346.46 115.99 337.54 116.00 328.00 116.00 C 318.46 116.00 308.57 115.99 299.00 116.00 C 289.43 116.01 279.52 115.98 270.00 116.00 C 260.48 116.02 250.39 115.96 241.00 116.00 C 231.61 116.04 222.55 115.47 214.00 117.00 Z"/>
</g>
<g fill="None" fill-opacity="0.0" stroke="#84DCF1" stroke-opacity="1.00" stroke-width="0.3"><path d="
M 196.00 122.00 
C 206.59 118.19 216.07 117.67 228.00 118.00 C 239.93 118.33 252.86 117.85 265.00 118.00 C 277.14 118.15 289.78 117.92 302.00 118.00 C 314.22 118.08 326.78 117.94 339.00 118.00 C 351.22 118.06 363.86 117.91 376.00 118.00 C 388.14 118.09 399.96 117.83 412.00 118.00 C 424.04 118.17 437.13 117.64 449.00 118.00 C 460.87 118.36 474.62 117.21 486.00 118.00 C 497.38 118.79 512.75 116.26 523.00 118.00 C 533.25 119.74 551.30 112.78 557.00 121.00
C 556.71 120.23 556.34 118.59 556.00 118.00
C 551.99 113.41 540.17 118.40 534.00 117.00 C 527.83 115.60 517.99 117.63 511.00 117.00 C 504.01 116.37 495.36 117.29 488.00 117.00 C 480.64 116.71 472.52 117.13 465.00 117.00 C 457.48 116.87 449.59 117.06 442.00 117.00 C 434.41 116.94 426.60 117.03 419.00 117.00 C 411.40 116.97 403.57 117.01 396.00 117.00 C 388.43 116.99 381.58 117.00 374.00 117.00 C 366.42 117.00 358.62 117.00 351.00 117.00 C 343.38 117.00 335.64 116.99 328.00 117.00 C 320.36 117.01 312.65 116.98 305.00 117.00 C 297.35 117.02 289.64 116.96 282.00 117.00 C 274.37 117.04 266.60 116.90 259.00 117.00 C 251.40 117.10 243.53 116.78 236.00 117.00 C 228.47 117.22 221.46 116.49 214.00 117.00
C 207.04 117.47 201.88 119.09 196.00 122.00 Z"/>
</g>
<g fill="None" fill-opacity="0.0" stroke="#22C2EB" stroke-opacity="1.00" stroke-width="0.3"><path d="
M 196.00 122.00 
C 187.99 124.89 180.02 130.46 175.00 138.00
C 184.24 126.18 200.42 118.46 209.00 129.00
C 208.69 121.37 215.92 129.42 216.00 124.00
C 225.70 125.23 231.94 136.06 241.00 133.00
C 239.56 139.91 252.33 138.21 255.00 143.00
C 262.80 140.17 270.75 143.56 279.00 142.00
C 283.08 154.48 297.39 139.34 304.00 148.00
C 310.30 144.81 316.01 146.11 319.00 150.00
C 326.47 144.14 329.98 158.94 337.00 160.00
C 340.19 156.31 336.12 154.61 340.00 152.00
C 342.26 154.09 345.24 156.62 347.00 154.00
C 347.89 161.54 355.50 158.82 360.30 160.28 C 365.11 161.74 375.18 165.73 381.00 164.00
C 384.94 171.34 389.12 169.13 395.03 169.97 C 400.94 170.81 413.30 169.18 419.00 173.00
C 409.73 177.03 395.87 174.49 384.00 175.00 C 372.13 175.51 359.12 174.77 347.00 175.00 C 334.88 175.23 322.24 174.89 310.00 175.00 C 297.76 175.11 285.28 174.94 273.00 175.00 C 260.72 175.06 248.30 174.96 236.00 175.00
C 235.70 177.52 239.30 177.35 241.00 178.00
C 240.37 177.60 239.35 176.79 239.00 176.00
C 328.17 176.67 418.65 174.67 507.00 177.00
C 510.82 181.05 509.34 190.80 511.67 196.33 C 514.00 201.86 513.66 210.97 514.67 217.33 C 515.68 223.69 516.61 233.19 515.93 239.93 C 515.24 246.66 514.59 254.18 513.93 260.93 C 513.27 267.67 511.25 274.55 509.99 280.99 C 508.74 287.44 506.96 293.97 504.93 299.93 C 502.89 305.89 500.50 311.44 497.92 316.92 C 495.35 322.41 492.99 327.02 490.00 332.00
C 491.03 330.71 492.25 328.70 494.00 328.00
C 492.46 332.99 491.25 333.31 493.00 338.00
C 495.74 336.94 499.21 339.23 499.00 342.00
C 503.55 337.49 501.12 345.06 509.01 340.01 C 516.90 334.96 524.61 344.53 530.25 344.80 C 535.89 345.07 540.21 351.19 544.00 346.00
C 545.67 350.39 553.42 348.77 553.00 354.00
C 553.41 351.33 556.38 348.05 557.00 353.00
C 574.52 322.22 584.00 284.25 584.00 248.00
C 584.00 241.00 584.00 234.00 584.00 227.00
C 584.00 187.87 570.24 156.02 557.00 121.00
C 551.30 112.78 533.25 119.74 523.00 118.00 C 512.75 116.26 497.38 118.79 486.00 118.00 C 474.62 117.21 460.87 118.36 449.00 118.00 C 437.13 117.64 424.04 118.17 412.00 118.00 C 399.96 117.83 388.14 118.09 376.00 118.00 C 363.86 117.91 351.22 118.06 339.00 118.00 C 326.78 117.94 314.22 118.08 302.00 118.00 C 289.78 117.92 277.14 118.15 265.00 118.00 C 252.86 117.85 239.93 118.33 228.00 118.00 C 216.07 117.67 206.59 118.19 196.00 122.00 Z"/>
</g>
<g fill="None" fill-opacity="0.0" stroke="#1EB2EE" stroke-opacity="1.00" stroke-width="0.3"><path d="
M 175.00 138.00 
C 160.35 160.01 158.34 203.91 184.77 219.23 C 211.20 234.55 239.80 239.48 267.93 249.07 C 296.05 258.67 323.24 270.09 352.00 277.00
C 361.06 279.18 376.32 281.64 380.00 292.00
C 383.78 302.65 377.01 311.52 367.00 314.00
C 351.44 317.86 333.67 313.98 317.00 315.00 C 300.33 316.02 281.82 314.62 265.00 315.00 C 248.18 315.38 230.74 315.05 214.00 315.00 C 197.26 314.95 178.38 315.47 162.00 315.00 C 145.62 314.53 126.45 316.25 111.00 315.00 C 95.55 313.75 89.53 326.77 79.75 335.75 C 69.97 344.73 63.12 352.15 54.25 361.25 C 45.38 370.34 36.47 377.92 28.00 387.00
C 27.54 387.49 27.40 388.57 27.00 389.00
C 43.43 374.96 58.77 358.23 74.00 343.00
C 85.49 331.51 91.06 316.77 109.00 316.00 C 126.94 315.23 152.39 316.35 172.00 316.00 C 191.61 315.65 214.65 316.16 235.00 316.00 C 255.35 315.84 277.34 316.08 298.00 316.00 C 318.66 315.92 340.25 316.06 361.00 316.00
C 359.04 318.66 353.89 315.28 352.00 318.00
C 357.79 316.77 365.92 319.27 369.77 321.57 C 373.62 323.88 380.64 321.70 379.00 331.00
C 383.01 336.14 388.92 330.98 391.00 328.00
C 400.42 331.84 409.42 321.26 413.00 336.00
C 414.63 331.37 414.61 335.72 418.00 336.00
C 420.09 326.73 429.28 334.62 434.00 337.00
C 434.82 332.06 435.83 330.59 441.00 331.00
C 440.58 334.51 438.01 337.23 436.00 340.00
C 442.92 335.16 444.58 325.36 447.00 318.00
C 447.69 314.74 448.01 311.84 449.00 309.00
C 449.01 308.50 449.00 307.50 449.00 307.00
C 449.00 296.57 448.68 286.92 447.00 277.00
C 443.44 255.92 422.37 238.63 403.00 232.00
C 393.66 228.80 383.94 225.38 375.00 222.00
C 368.53 220.27 362.17 218.66 356.00 216.00
C 339.20 211.45 322.58 205.65 307.00 199.00
C 293.91 195.19 281.12 189.50 268.00 186.00
C 258.94 183.58 250.01 180.70 241.00 178.00
C 239.30 177.35 235.70 177.52 236.00 175.00
C 248.30 174.96 260.72 175.06 273.00 175.00 C 285.28 174.94 297.76 175.11 310.00 175.00 C 322.24 174.89 334.88 175.23 347.00 175.00 C 359.12 174.77 372.13 175.51 384.00 175.00 C 395.87 174.49 409.73 177.03 419.00 173.00
C 413.30 169.18 400.94 170.81 395.03 169.97 C 389.12 169.13 384.94 171.34 381.00 164.00
C 375.18 165.73 365.11 161.74 360.30 160.28 C 355.50 158.82 347.89 161.54 347.00 154.00
C 345.24 156.62 342.26 154.09 340.00 152.00
C 336.12 154.61 340.19 156.31 337.00 160.00
C 329.98 158.94 326.47 144.14 319.00 150.00
C 316.01 146.11 310.30 144.81 304.00 148.00
C 297.39 139.34 283.08 154.48 279.00 142.00
C 270.75 143.56 262.80 140.17 255.00 143.00
C 252.33 138.21 239.56 139.91 241.00 133.00
C 231.94 136.06 225.70 125.23 216.00 124.00
C 215.92 129.42 208.69 121.37 209.00 129.00
C 200.42 118.46 184.24 126.18 175.00 138.00 Z"/>
</g>
<g fill="None" fill-opacity="0.0" stroke="#D7F2F8" stroke-opacity="1.00" stroke-width="0.3"><path d="
M 241.00 178.00 
C 250.01 180.70 258.94 183.58 268.00 186.00
C 260.68 182.51 252.01 180.20 244.00 178.00
C 330.68 175.67 419.50 177.67 507.00 177.00
C 418.65 174.67 328.17 176.67 239.00 176.00
C 239.35 176.79 240.37 177.60 241.00 178.00 Z"/>
</g>
<g fill="None" fill-opacity="0.0" stroke="#129CF2" stroke-opacity="1.00" stroke-width="0.3"><path d="
M 114.00 289.00 
C 113.33 260.82 115.33 231.43 113.00 204.00
C 113.00 209.67 113.00 215.33 113.00 221.00
C 112.34 216.68 105.69 218.68 106.00 223.00
C 104.09 219.92 103.59 224.19 101.00 221.00
C 101.53 223.68 97.52 224.34 98.00 227.00
C 90.73 227.76 88.32 220.00 81.00 221.00
C 82.40 216.00 77.55 218.44 76.00 215.00
C 76.20 220.80 75.16 216.56 73.00 216.00
C 66.44 224.28 55.34 222.03 53.00 232.00
C 53.03 216.75 53.40 200.52 52.00 186.00
C 52.00 220.33 52.00 254.67 52.00 289.00
C 72.67 289.00 93.33 289.00 114.00 289.00 Z"/>
</g>
<g fill="None" fill-opacity="0.0" stroke="#E7F5FB" stroke-opacity="1.00" stroke-width="0.3"><path d="
M 115.00 289.00 
C 111.01 293.14 100.03 288.74 94.00 290.00 C 87.97 291.26 78.54 289.32 72.00 290.00 C 65.46 290.68 57.65 289.49 51.00 290.00
C 53.72 293.89 67.77 290.29 73.00 291.00 C 78.23 291.71 90.57 291.51 96.00 291.00 C 101.43 290.49 114.53 294.42 116.00 288.00 C 117.47 281.58 115.34 272.10 116.00 265.00 C 116.66 257.90 115.71 249.40 116.00 242.00 C 116.29 234.60 115.89 226.53 116.00 219.00 C 116.11 211.47 116.00 203.56 116.00 196.00
C 116.00 196.00 115.00 195.96 115.00 196.00
C 115.00 226.57 117.75 258.57 115.00 289.00 Z"/>
</g>
<g fill="None" fill-opacity="0.0" stroke="#91DAF3" stroke-opacity="1.00" stroke-width="0.3"><path d="
M 356.00 216.00 
C 340.57 209.34 323.45 203.79 307.00 199.00
C 322.58 205.65 339.20 211.45 356.00 216.00 Z"/>
</g>
<g fill="None" fill-opacity="0.0" stroke="#B7E8F6" stroke-opacity="1.00" stroke-width="0.3"><path d="
M 403.00 232.00 
C 394.38 227.64 384.58 224.56 375.00 222.00
C 383.94 225.38 393.66 228.80 403.00 232.00 Z"/>
</g>
<g fill="None" fill-opacity="0.0" stroke="#B1E9F3" stroke-opacity="1.00" stroke-width="0.3"><path d="
M 584.00 248.00 
C 584.63 241.46 584.64 233.61 584.00 227.00
C 584.00 234.00 584.00 241.00 584.00 248.00 Z"/>
</g>
<g fill="None" fill-opacity="0.0" stroke="#9AD9F1" stroke-opacity="1.00" stroke-width="0.3"><path d="
M 380.00 292.00 
C 376.32 281.64 361.06 279.18 352.00 277.00
C 359.94 279.72 375.87 282.97 380.00 292.00 Z"/>
</g>
<g fill="None" fill-opacity="0.0" stroke="#9BDFF2" stroke-opacity="1.00" stroke-width="0.3"><path d="
M 449.00 307.00 
C 452.58 298.59 449.45 285.09 447.00 277.00
C 448.68 286.92 449.00 296.57 449.00 307.00 Z"/>
</g>
<g fill="None" fill-opacity="0.0" stroke="#A1E3F4" stroke-opacity="1.00" stroke-width="0.3"><path d="
M 447.00 318.00 
C 447.88 315.33 448.92 312.26 449.00 309.00
C 448.01 311.84 447.69 314.74 447.00 318.00 Z"/>
</g>
<g fill="None" fill-opacity="0.0" stroke="#D4ECF7" stroke-opacity="1.00" stroke-width="0.3"><path d="
M 28.00 387.00 
C 36.47 377.92 45.38 370.34 54.25 361.25 C 63.12 352.15 69.97 344.73 79.75 335.75 C 89.53 326.77 95.55 313.75 111.00 315.00 C 126.45 316.25 145.62 314.53 162.00 315.00 C 178.38 315.47 197.26 314.95 214.00 315.00 C 230.74 315.05 248.18 315.38 265.00 315.00 C 281.82 314.62 300.33 316.02 317.00 315.00 C 333.67 313.98 351.44 317.86 367.00 314.00
C 350.10 316.09 331.98 313.06 315.00 314.00 C 298.02 314.94 280.94 313.63 264.00 314.00 C 247.05 314.37 228.76 313.93 212.00 314.00 C 195.24 314.07 177.28 314.19 161.00 314.00 C 144.72 313.81 124.26 314.56 109.00 314.00 C 93.74 313.44 89.36 326.95 79.25 335.25 C 69.14 343.54 62.63 352.83 53.25 361.25 C 43.87 369.66 36.75 378.25 28.00 387.00 Z"/>
</g>
<g fill="None" fill-opacity="0.0" stroke="#0B9CEA" stroke-opacity="1.00" stroke-width="0.3"><path d="
M 74.00 343.00 
C 72.27 346.41 69.83 350.21 68.00 355.00
C 74.21 355.20 81.55 353.44 87.08 354.07 C 92.61 354.69 97.17 360.51 102.00 355.00
C 109.68 358.43 116.22 356.98 123.00 360.00
C 123.40 366.71 130.87 372.85 137.00 371.00
C 137.07 374.72 134.53 376.95 132.00 380.00
C 134.55 377.45 138.73 372.36 142.00 371.00
C 188.81 366.76 241.58 374.06 288.00 371.00 C 334.42 367.94 379.86 379.85 420.00 357.00
C 425.97 352.65 430.05 345.15 436.00 341.00
C 436.00 341.00 435.76 340.32 436.00 340.00
C 438.01 337.23 440.58 334.51 441.00 331.00
C 435.83 330.59 434.82 332.06 434.00 337.00
C 429.28 334.62 420.09 326.73 418.00 336.00
C 414.61 335.72 414.63 331.37 413.00 336.00
C 409.42 321.26 400.42 331.84 391.00 328.00
C 388.92 330.98 383.01 336.14 379.00 331.00
C 380.64 321.70 373.62 323.88 369.77 321.57 C 365.92 319.27 357.79 316.77 352.00 318.00
C 353.89 315.28 359.04 318.66 361.00 316.00
C 340.25 316.06 318.66 315.92 298.00 316.00 C 277.34 316.08 255.35 315.84 235.00 316.00 C 214.65 316.16 191.61 315.65 172.00 316.00 C 152.39 316.35 126.94 315.23 109.00 316.00 C 91.06 316.77 85.49 331.51 74.00 343.00 Z"/>
</g>
<g fill="None" fill-opacity="0.0" stroke="#0DB1E5" stroke-opacity="1.00" stroke-width="0.3"><path d="
M 490.00 332.00 
C 486.25 336.70 483.32 342.26 480.00 347.00
C 474.12 355.40 465.64 363.41 458.00 370.00
C 457.81 370.30 456.87 374.43 457.00 376.00
C 464.78 369.95 472.40 382.87 480.75 383.25 C 489.11 383.63 485.49 386.90 494.25 387.20 C 503.00 387.50 515.11 389.72 523.00 388.00
C 522.81 390.78 524.44 393.81 527.00 395.00
C 521.98 401.49 514.97 406.56 510.00 413.00
C 518.91 405.39 527.22 396.42 535.00 388.00
C 543.80 376.85 550.13 365.07 557.00 353.00
C 556.38 348.05 553.41 351.33 553.00 354.00
C 553.42 348.77 545.67 350.39 544.00 346.00
C 540.21 351.19 535.89 345.07 530.25 344.80 C 524.61 344.53 516.90 334.96 509.01 340.01 C 501.12 345.06 503.55 337.49 499.00 342.00
C 499.21 339.23 495.74 336.94 493.00 338.00
C 491.25 333.31 492.46 332.99 494.00 328.00
C 492.25 328.70 491.03 330.71 490.00 332.00 Z"/>
</g>
<g fill="None" fill-opacity="0.0" stroke="#44BBEF" stroke-opacity="1.00" stroke-width="0.3"><path d="
M 420.00 357.00 
C 424.43 354.48 432.26 348.35 435.00 344.00
C 435.38 343.20 435.67 341.89 436.00 341.00
C 430.05 345.15 425.97 352.65 420.00 357.00 Z"/>
</g>
<g fill="None" fill-opacity="0.0" stroke="#0481E7" stroke-opacity="1.00" stroke-width="0.3"><path d="
M 27.00 389.00 
C 19.91 395.06 13.19 402.13 7.00 409.00
C 22.52 407.82 42.97 410.58 58.00 409.00 C 73.03 407.42 94.37 413.27 106.25 406.25 C 118.12 399.22 121.49 387.79 132.00 380.00
C 134.53 376.95 137.07 374.72 137.00 371.00
C 130.87 372.85 123.40 366.71 123.00 360.00
C 116.22 356.98 109.68 358.43 102.00 355.00
C 97.17 360.51 92.61 354.69 87.08 354.07 C 81.55 353.44 74.21 355.20 68.00 355.00
C 69.83 350.21 72.27 346.41 74.00 343.00
C 58.77 358.23 43.43 374.96 27.00 389.00 Z"/>
</g>
<g fill="None" fill-opacity="0.0" stroke="#ACDEF5" stroke-opacity="1.00" stroke-width="0.3"><path d="
M 420.00 357.00 
C 379.86 379.85 334.42 367.94 288.00 371.00 C 241.58 374.06 188.81 366.76 142.00 371.00
C 141.96 371.00 142.00 372.00 142.00 372.00
C 159.60 373.59 178.41 371.26 196.00 372.00 C 213.59 372.74 231.59 371.65 249.00 372.00 C 266.41 372.35 286.03 371.78 303.00 372.00 C 319.97 372.22 340.09 371.78 356.00 372.00 C 371.91 372.22 391.48 371.91 403.98 365.98 C 416.47 360.04 428.93 356.80 435.00 344.00
C 432.26 348.35 424.43 354.48 420.00 357.00 Z"/>
</g>
<g fill="None" fill-opacity="0.0" stroke="#86D2EE" stroke-opacity="1.00" stroke-width="0.3"><path d="
M 424.00 391.00 
C 436.42 386.53 447.90 378.71 458.00 370.00
C 465.64 363.41 474.12 355.40 480.00 347.00
C 464.64 365.70 444.33 379.91 424.00 391.00 Z"/>
</g>
<g fill="None" fill-opacity="0.0" stroke="#099EE7" stroke-opacity="1.00" stroke-width="0.3"><path d="
M 424.00 391.00 
C 414.09 394.57 404.49 398.33 394.00 400.00
C 361.14 409.57 320.45 405.00 285.00 405.00
C 287.94 405.28 292.35 406.86 296.00 406.00
C 295.53 411.07 303.14 410.58 301.00 415.00
C 305.71 415.66 307.31 410.71 312.00 411.00
C 307.81 415.27 317.46 415.28 313.00 419.00
C 315.01 421.80 315.30 416.40 317.00 416.00
C 316.08 419.14 316.95 419.46 318.00 422.00
C 320.31 417.55 323.78 424.01 325.00 426.00
C 328.14 423.17 327.36 423.38 330.30 425.71 C 333.25 428.05 337.09 424.71 336.00 430.00
C 337.99 424.31 339.50 429.96 341.00 433.00
C 343.22 432.08 338.80 427.62 343.00 428.00
C 340.00 431.92 349.09 434.54 344.00 430.00
C 348.91 428.42 346.97 434.71 352.00 434.00
C 347.81 429.13 353.32 433.90 356.00 434.00
C 352.75 429.66 364.56 437.06 368.00 434.00
C 367.24 438.03 371.12 435.25 374.00 435.00
C 375.12 438.88 378.92 439.87 376.00 443.00
C 378.34 443.65 381.31 443.52 382.00 447.00
C 384.60 446.50 389.58 447.19 390.00 444.00
C 393.86 446.51 396.99 446.30 401.00 447.00
C 402.93 444.44 404.91 442.94 405.00 440.00
C 406.20 443.13 408.90 440.69 411.00 442.00
C 409.87 446.97 418.14 449.98 420.00 445.00
C 423.38 445.84 424.03 448.80 427.00 446.00
C 426.89 449.79 432.83 448.91 432.00 453.00
C 435.33 454.52 435.73 447.13 436.00 453.00
C 436.62 451.26 440.26 449.72 440.00 453.00
C 443.09 451.87 446.71 450.54 450.00 450.00
C 450.00 450.00 450.53 450.11 451.00 450.00
C 458.94 443.63 471.65 439.37 481.00 435.00
C 483.27 433.58 485.81 432.27 488.00 431.00
C 495.39 425.62 502.89 419.08 510.00 413.00
C 514.97 406.56 521.98 401.49 527.00 395.00
C 524.44 393.81 522.81 390.78 523.00 388.00
C 515.11 389.72 503.00 387.50 494.25 387.20 C 485.49 386.90 489.11 383.63 480.75 383.25 C 472.40 382.87 464.78 369.95 457.00 376.00
C 456.87 374.43 457.81 370.30 458.00 370.00
C 447.90 378.71 436.42 386.53 424.00 391.00 Z"/>
</g>
<g fill="None" fill-opacity="0.0" stroke="#71B6EE" stroke-opacity="1.00" stroke-width="0.3"><path d="
M 132.00 380.00 
C 121.49 387.79 118.12 399.22 106.25 406.25 C 94.37 413.27 73.03 407.42 58.00 409.00 C 42.97 410.58 22.52 407.82 7.00 409.00
C 13.19 402.13 19.91 395.06 27.00 389.00
C 27.40 388.57 27.54 387.49 28.00 387.00
C 20.59 394.20 11.46 401.44 6.00 410.00
C 16.79 409.48 28.28 410.70 39.00 410.00 C 49.72 409.30 61.53 411.34 72.00 410.00 C 82.47 408.66 94.07 412.97 104.00 410.00
C 108.23 408.44 111.14 401.03 115.25 398.25 C 119.35 395.47 122.99 390.36 126.75 386.75 C 130.51 383.14 135.38 378.69 139.00 375.00
C 139.99 373.81 140.69 372.97 142.00 372.00
C 142.00 372.00 141.96 371.00 142.00 371.00
C 138.73 372.36 134.55 377.45 132.00 380.00 Z"/>
</g>
<g fill="None" fill-opacity="0.0" stroke="#DCEFFA" stroke-opacity="1.00" stroke-width="0.3"><path d="
M 104.00 410.00 
C 110.84 407.95 115.91 397.16 121.75 392.75 C 127.60 388.34 134.29 380.68 139.00 375.00
C 135.38 378.69 130.51 383.14 126.75 386.75 C 122.99 390.36 119.35 395.47 115.25 398.25 C 111.14 401.03 108.23 408.44 104.00 410.00 Z"/>
</g>
<g fill="None" fill-opacity="0.0" stroke="#A7E0F4" stroke-opacity="1.00" stroke-width="0.3"><path d="
M 510.00 413.00 
C 502.89 419.08 495.39 425.62 488.00 431.00
C 505.49 420.83 522.23 404.18 535.00 388.00
C 527.22 396.42 518.91 405.39 510.00 413.00 Z"/>
</g>
<g fill="None" fill-opacity="0.0" stroke="#74C4EF" stroke-opacity="1.00" stroke-width="0.3"><path d="
M 369.00 403.00 
C 352.35 404.61 334.42 403.66 317.00 404.00 C 299.58 404.34 280.31 403.27 263.00 404.00 C 245.69 404.73 225.75 402.39 209.00 404.00 C 192.25 405.61 172.44 398.61 159.00 408.00
C 159.00 408.00 159.23 408.84 159.00 409.00
C 159.68 408.20 161.17 407.58 162.00 407.00
C 171.71 400.21 188.43 406.63 201.00 405.00 C 213.57 403.37 229.74 405.61 243.00 405.00 C 256.26 404.39 271.56 405.00 285.00 405.00
C 320.45 405.00 361.14 409.57 394.00 400.00
C 385.65 401.33 377.72 403.00 369.00 403.00 Z"/>
</g>
<g fill="None" fill-opacity="0.0" stroke="#DEF0F7" stroke-opacity="1.00" stroke-width="0.3"><path d="
M 159.00 408.00 
C 172.44 398.61 192.25 405.61 209.00 404.00 C 225.75 402.39 245.69 404.73 263.00 404.00 C 280.31 403.27 299.58 404.34 317.00 404.00 C 334.42 403.66 352.35 404.61 369.00 403.00
C 354.89 403.00 340.04 402.87 326.00 403.00 C 311.96 403.13 296.77 402.64 283.00 403.00 C 269.23 403.36 253.13 402.18 240.00 403.00 C 226.87 403.82 208.70 401.16 197.00 403.00 C 185.30 404.84 164.55 396.66 159.00 408.00 Z"/>
</g>
<g fill="None" fill-opacity="0.0" stroke="#078FE7" stroke-opacity="1.00" stroke-width="0.3"><path d="
M 162.00 407.00 
C 161.01 407.93 156.55 414.06 157.00 417.00
C 162.81 413.36 164.88 425.02 171.00 422.00
C 170.97 424.26 175.43 427.41 180.00 426.00
C 177.17 431.35 182.62 426.51 181.00 433.00
C 182.33 430.06 183.02 427.89 183.00 433.00
C 189.16 434.82 197.48 436.10 200.00 432.00
C 204.47 435.81 209.61 434.13 214.25 433.20 C 218.89 432.27 224.89 445.31 229.00 439.00
C 228.73 442.90 235.00 442.40 235.00 446.00
C 242.53 443.10 254.43 453.62 265.00 448.00
C 267.71 455.28 281.62 453.35 283.00 463.00
C 288.86 463.82 291.97 462.63 293.00 457.00
C 296.15 456.65 300.30 456.54 299.00 461.00
C 304.62 459.14 309.28 463.46 315.00 463.00
C 291.40 466.00 264.53 462.00 241.00 465.00
C 275.04 465.00 312.28 464.86 346.00 465.00 C 379.72 465.14 409.64 464.07 440.00 453.00
C 440.26 449.72 436.62 451.26 436.00 453.00
C 435.73 447.13 435.33 454.52 432.00 453.00
C 432.83 448.91 426.89 449.79 427.00 446.00
C 424.03 448.80 423.38 445.84 420.00 445.00
C 418.14 449.98 409.87 446.97 411.00 442.00
C 408.90 440.69 406.20 443.13 405.00 440.00
C 404.91 442.94 402.93 444.44 401.00 447.00
C 396.99 446.30 393.86 446.51 390.00 444.00
C 389.58 447.19 384.60 446.50 382.00 447.00
C 381.31 443.52 378.34 443.65 376.00 443.00
C 378.92 439.87 375.12 438.88 374.00 435.00
C 371.12 435.25 367.24 438.03 368.00 434.00
C 364.56 437.06 352.75 429.66 356.00 434.00
C 353.32 433.90 347.81 429.13 352.00 434.00
C 346.97 434.71 348.91 428.42 344.00 430.00
C 349.09 434.54 340.00 431.92 343.00 428.00
C 338.80 427.62 343.22 432.08 341.00 433.00
C 339.50 429.96 337.99 424.31 336.00 430.00
C 337.09 424.71 333.25 428.05 330.30 425.71 C 327.36 423.38 328.14 423.17 325.00 426.00
C 323.78 424.01 320.31 417.55 318.00 422.00
C 316.95 419.46 316.08 419.14 317.00 416.00
C 315.30 416.40 315.01 421.80 313.00 419.00
C 317.46 415.28 307.81 415.27 312.00 411.00
C 307.31 410.71 305.71 415.66 301.00 415.00
C 303.14 410.58 295.53 411.07 296.00 406.00
C 292.35 406.86 287.94 405.28 285.00 405.00
C 271.56 405.00 256.26 404.39 243.00 405.00 C 229.74 405.61 213.57 403.37 201.00 405.00 C 188.43 406.63 171.71 400.21 162.00 407.00 Z"/>
</g>
<g fill="None" fill-opacity="0.0" stroke="#0581E5" stroke-opacity="1.00" stroke-width="0.3"><path d="
M 159.00 409.00 
C 158.51 409.58 158.37 410.39 158.00 411.00
C 152.59 419.88 142.94 426.44 136.00 434.00
C 135.29 434.94 134.68 436.10 134.00 437.00
C 130.85 441.16 126.59 444.41 123.00 448.00
C 121.38 449.89 119.66 452.06 118.00 454.00
C 114.99 457.53 110.66 460.86 109.00 465.00
C 153.00 465.00 197.00 465.00 241.00 465.00
C 264.53 462.00 291.40 466.00 315.00 463.00
C 309.28 463.46 304.62 459.14 299.00 461.00
C 300.30 456.54 296.15 456.65 293.00 457.00
C 291.97 462.63 288.86 463.82 283.00 463.00
C 281.62 453.35 267.71 455.28 265.00 448.00
C 254.43 453.62 242.53 443.10 235.00 446.00
C 235.00 442.40 228.73 442.90 229.00 439.00
C 224.89 445.31 218.89 432.27 214.25 433.20 C 209.61 434.13 204.47 435.81 200.00 432.00
C 197.48 436.10 189.16 434.82 183.00 433.00
C 183.02 427.89 182.33 430.06 181.00 433.00
C 182.62 426.51 177.17 431.35 180.00 426.00
C 175.43 427.41 170.97 424.26 171.00 422.00
C 164.88 425.02 162.81 413.36 157.00 417.00
C 156.55 414.06 161.01 407.93 162.00 407.00
C 161.17 407.58 159.68 408.20 159.00 409.00 Z"/>
</g>
<g fill="None" fill-opacity="0.0" stroke="#CDE5F5" stroke-opacity="1.00" stroke-width="0.3"><path d="
M 130.00 440.00 
C 131.11 438.93 133.00 438.07 134.00 437.00
C 134.68 436.10 135.29 434.94 136.00 434.00
C 142.39 425.55 150.91 418.60 158.00 411.00
C 158.37 410.39 158.51 409.58 159.00 409.00
C 148.00 416.66 138.64 429.89 130.00 440.00 Z"/>
</g>
<g fill="None" fill-opacity="0.0" stroke="#61AEEA" stroke-opacity="1.00" stroke-width="0.3"><path d="
M 136.00 434.00 
C 142.94 426.44 152.59 419.88 158.00 411.00
C 150.91 418.60 142.39 425.55 136.00 434.00 Z"/>
</g>
<g fill="None" fill-opacity="0.0" stroke="#8DD2F2" stroke-opacity="1.00" stroke-width="0.3"><path d="
M 451.00 450.00 
C 461.45 447.53 472.10 440.57 481.00 435.00
C 471.65 439.37 458.94 443.63 451.00 450.00 Z"/>
</g>
<g fill="None" fill-opacity="0.0" stroke="#71B2E8" stroke-opacity="1.00" stroke-width="0.3"><path d="
M 130.00 440.00 
C 127.78 442.60 125.27 445.35 123.00 448.00
C 126.59 444.41 130.85 441.16 134.00 437.00
C 133.00 438.07 131.11 438.93 130.00 440.00 Z"/>
</g>
<g fill="None" fill-opacity="0.0" stroke="#8DCAF0" stroke-opacity="1.00" stroke-width="0.3"><path d="
M 440.00 453.00 
C 409.64 464.07 379.72 465.14 346.00 465.00 C 312.28 464.86 275.04 465.00 241.00 465.00
C 197.00 465.00 153.00 465.00 109.00 465.00
C 110.66 460.86 114.99 457.53 118.00 454.00
C 114.51 457.45 108.49 460.78 108.00 466.00
C 127.86 465.97 148.19 466.04 168.00 466.00 C 187.81 465.96 208.36 466.08 228.00 466.00 C 247.64 465.92 267.68 466.17 287.00 466.00 C 306.32 465.83 328.33 466.36 347.00 466.00 C 365.67 465.64 387.60 467.73 404.00 463.00 C 420.39 458.27 437.28 460.92 450.00 450.00
C 446.71 450.54 443.09 451.87 440.00 453.00 Z"/>
</g>
<g fill="#FBF9F7" fill-opacity="1.00" stroke="None">
<path d="
M 0.00 472.00 
L 588.00 472.00
L 588.00 0.00
L 0.00 0.00
L 0.00 472.00
M 429.00 15.00 
C 475.98 22.94 518.68 60.60 544.00 100.00
C 523.00 102.18 499.78 97.10 479.00 100.00 C 458.22 102.90 446.57 92.65 430.31 83.69 C 414.04 74.74 397.10 71.64 379.00 69.00
C 335.87 64.83 291.69 69.42 248.00 68.00 C 204.31 66.58 159.77 69.07 116.00 68.00
C 116.00 110.67 116.00 153.33 116.00 196.00
C 116.00 203.56 116.11 211.47 116.00 219.00 C 115.89 226.53 116.29 234.60 116.00 242.00 C 115.71 249.40 116.66 257.90 116.00 265.00 C 115.34 272.10 117.47 281.58 116.00 288.00 C 114.53 294.42 101.43 290.49 96.00 291.00 C 90.57 291.51 78.23 291.71 73.00 291.00 C 67.77 290.29 53.72 293.89 51.00 290.00
C 47.80 285.42 52.36 275.91 51.00 270.00 C 49.64 264.09 51.62 255.50 51.00 249.00 C 50.38 242.50 51.28 234.74 51.00 228.00 C 50.72 221.26 51.13 213.81 51.00 207.00 C 50.87 200.19 51.06 193.87 51.00 187.00 C 50.94 180.13 51.03 172.94 51.00 166.00 C 50.97 159.06 51.01 151.97 51.00 145.00 C 50.99 138.03 51.00 130.99 51.00 124.00 C 51.00 117.01 51.00 109.99 51.00 103.00
C 51.00 70.67 51.00 38.33 51.00 6.00
C 114.25 7.27 181.11 4.30 244.00 6.00 C 306.89 7.70 370.49 -0.95 429.00 15.00
M 556.00 118.00 
C 556.34 118.59 556.71 120.23 557.00 121.00
C 570.24 156.02 584.00 187.87 584.00 227.00
C 584.64 233.61 584.63 241.46 584.00 248.00
C 584.00 284.25 574.52 322.22 557.00 353.00
C 550.13 365.07 543.80 376.85 535.00 388.00
C 522.23 404.18 505.49 420.83 488.00 431.00
C 485.81 432.27 483.27 433.58 481.00 435.00
C 472.10 440.57 461.45 447.53 451.00 450.00
C 450.53 450.11 450.00 450.00 450.00 450.00
C 437.28 460.92 420.39 458.27 404.00 463.00 C 387.60 467.73 365.67 465.64 347.00 466.00 C 328.33 466.36 306.32 465.83 287.00 466.00 C 267.68 466.17 247.64 465.92 228.00 466.00 C 208.36 466.08 187.81 465.96 168.00 466.00 C 148.19 466.04 127.86 465.97 108.00 466.00
C 108.49 460.78 114.51 457.45 118.00 454.00
C 119.66 452.06 121.38 449.89 123.00 448.00
C 125.27 445.35 127.78 442.60 130.00 440.00
C 138.64 429.89 148.00 416.66 159.00 409.00
C 159.23 408.84 159.00 408.00 159.00 408.00
C 164.55 396.66 185.30 404.84 197.00 403.00 C 208.70 401.16 226.87 403.82 240.00 403.00 C 253.13 402.18 269.23 403.36 283.00 403.00 C 296.77 402.64 311.96 403.13 326.00 403.00 C 340.04 402.87 354.89 403.00 369.00 403.00
C 377.72 403.00 385.65 401.33 394.00 400.00
C 404.49 398.33 414.09 394.57 424.00 391.00
C 444.33 379.91 464.64 365.70 480.00 347.00
C 483.32 342.26 486.25 336.70 490.00 332.00
C 492.99 327.02 495.35 322.41 497.92 316.92 C 500.50 311.44 502.89 305.89 504.93 299.93 C 506.96 293.97 508.74 287.44 509.99 280.99 C 511.25 274.55 513.27 267.67 513.93 260.93 C 514.59 254.18 515.24 246.66 515.93 239.93 C 516.61 233.19 515.68 223.69 514.67 217.33 C 513.66 210.97 514.00 201.86 511.67 196.33 C 509.34 190.80 510.82 181.05 507.00 177.00
C 419.50 177.67 330.68 175.67 244.00 178.00
C 252.01 180.20 260.68 182.51 268.00 186.00
C 281.12 189.50 293.91 195.19 307.00 199.00
C 323.45 203.79 340.57 209.34 356.00 216.00
C 362.17 218.66 368.53 220.27 375.00 222.00
C 384.58 224.56 394.38 227.64 403.00 232.00
C 422.37 238.63 443.44 255.92 447.00 277.00
C 449.45 285.09 452.58 298.59 449.00 307.00
C 449.00 307.50 449.01 308.50 449.00 309.00
C 448.92 312.26 447.88 315.33 447.00 318.00
C 444.58 325.36 442.92 335.16 436.00 340.00
C 435.76 340.32 436.00 341.00 436.00 341.00
C 435.67 341.89 435.38 343.20 435.00 344.00
C 428.93 356.80 416.47 360.04 403.98 365.98 C 391.48 371.91 371.91 372.22 356.00 372.00 C 340.09 371.78 319.97 372.22 303.00 372.00 C 286.03 371.78 266.41 372.35 249.00 372.00 C 231.59 371.65 213.59 372.74 196.00 372.00 C 178.41 371.26 159.60 373.59 142.00 372.00
C 140.69 372.97 139.99 373.81 139.00 375.00
C 134.29 380.68 127.60 388.34 121.75 392.75 C 115.91 397.16 110.84 407.95 104.00 410.00
C 94.07 412.97 82.47 408.66 72.00 410.00 C 61.53 411.34 49.72 409.30 39.00 410.00 C 28.28 410.70 16.79 409.48 6.00 410.00
C 11.46 401.44 20.59 394.20 28.00 387.00
C 36.75 378.25 43.87 369.66 53.25 361.25 C 62.63 352.83 69.14 343.54 79.25 335.25 C 89.36 326.95 93.74 313.44 109.00 314.00 C 124.26 314.56 144.72 313.81 161.00 314.00 C 177.28 314.19 195.24 314.07 212.00 314.00 C 228.76 313.93 247.05 314.37 264.00 314.00 C 280.94 313.63 298.02 314.94 315.00 314.00 C 331.98 313.06 350.10 316.09 367.00 314.00
C 377.01 311.52 383.78 302.65 380.00 292.00
C 375.87 282.97 359.94 279.72 352.00 277.00
C 323.24 270.09 296.05 258.67 267.93 249.07 C 239.80 239.48 211.20 234.55 184.77 219.23 C 158.34 203.91 160.35 160.01 175.00 138.00
C 180.02 130.46 187.99 124.89 196.00 122.00
C 201.88 119.09 207.04 117.47 214.00 117.00
C 222.55 115.47 231.61 116.04 241.00 116.00 C 250.39 115.96 260.48 116.02 270.00 116.00 C 279.52 115.98 289.43 116.01 299.00 116.00 C 308.57 115.99 318.46 116.00 328.00 116.00 C 337.54 116.00 346.46 115.99 356.00 116.00 C 365.54 116.01 375.43 115.97 385.00 116.00 C 394.57 116.03 404.48 115.94 414.00 116.00 C 423.52 116.06 433.62 115.86 443.00 116.00 C 452.38 116.14 461.88 115.68 471.00 116.00 C 480.12 116.32 491.35 115.32 500.00 116.00 C 508.65 116.68 521.49 114.50 529.00 116.00 C 536.51 117.50 552.40 111.75 556.00 118.00 Z"/>
</g>
<g fill="#A0E3F7" fill-opacity="1.00" stroke="None">
<path d="
M 51.00 103.00 
C 51.00 102.96 52.00 103.00 52.00 103.00
C 52.00 95.33 52.00 87.67 52.00 80.00
C 52.00 55.67 52.00 31.33 52.00 7.00
C 115.15 7.90 181.13 5.80 244.00 7.00 C 306.87 8.20 369.46 1.56 429.00 15.00
C 370.49 -0.95 306.89 7.70 244.00 6.00 C 181.11 4.30 114.25 7.27 51.00 6.00
C 51.00 38.33 51.00 70.67 51.00 103.00 Z"/>
</g>
<g fill="#48CCF6" fill-opacity="1.00" stroke="None">
<path d="
M 52.00 80.00 
C 52.89 89.23 53.41 100.05 53.00 110.00
C 55.24 107.38 52.66 102.47 56.00 100.00
C 61.02 101.01 70.06 99.31 74.30 101.71 C 78.55 104.11 83.75 105.84 90.00 106.00
C 90.74 109.45 94.42 111.28 97.00 113.00
C 102.05 109.76 112.80 111.16 114.00 102.00
C 114.66 107.83 112.68 114.99 115.00 120.00
C 115.00 102.33 115.00 84.67 115.00 67.00
C 159.00 67.48 204.12 66.36 248.00 67.00 C 291.88 67.64 336.47 64.89 379.00 69.00
C 397.10 71.64 414.04 74.74 430.31 83.69 C 446.57 92.65 458.22 102.90 479.00 100.00 C 499.78 97.10 523.00 102.18 544.00 100.00
C 518.68 60.60 475.98 22.94 429.00 15.00
C 369.46 1.56 306.87 8.20 244.00 7.00 C 181.13 5.80 115.15 7.90 52.00 7.00
C 52.00 31.33 52.00 55.67 52.00 80.00 Z"/>
</g>
<g fill="#BFECF7" fill-opacity="1.00" stroke="None">
<path d="
M 115.00 120.00 
C 115.00 145.33 115.00 170.67 115.00 196.00
C 115.00 195.96 116.00 196.00 116.00 196.00
C 116.00 153.33 116.00 110.67 116.00 68.00
C 159.77 69.07 204.31 66.58 248.00 68.00 C 291.69 69.42 335.87 64.83 379.00 69.00
C 336.47 64.89 291.88 67.64 248.00 67.00 C 204.12 66.36 159.00 67.48 115.00 67.00
C 115.00 84.67 115.00 102.33 115.00 120.00 Z"/>
</g>
<g fill="#26B1F7" fill-opacity="1.00" stroke="None">
<path d="
M 52.00 103.00 
C 52.00 130.67 52.00 158.33 52.00 186.00
C 53.40 200.52 53.03 216.75 53.00 232.00
C 55.34 222.03 66.44 224.28 73.00 216.00
C 75.16 216.56 76.20 220.80 76.00 215.00
C 77.55 218.44 82.40 216.00 81.00 221.00
C 88.32 220.00 90.73 227.76 98.00 227.00
C 97.52 224.34 101.53 223.68 101.00 221.00
C 103.59 224.19 104.09 219.92 106.00 223.00
C 105.69 218.68 112.34 216.68 113.00 221.00
C 113.00 215.33 113.00 209.67 113.00 204.00
C 115.33 231.43 113.33 260.82 114.00 289.00
C 114.50 289.00 115.00 289.00 115.00 289.00
C 117.75 258.57 115.00 226.57 115.00 196.00
C 115.00 170.67 115.00 145.33 115.00 120.00
C 112.68 114.99 114.66 107.83 114.00 102.00
C 112.80 111.16 102.05 109.76 97.00 113.00
C 94.42 111.28 90.74 109.45 90.00 106.00
C 83.75 105.84 78.55 104.11 74.30 101.71 C 70.06 99.31 61.02 101.01 56.00 100.00
C 52.66 102.47 55.24 107.38 53.00 110.00
C 53.41 100.05 52.89 89.23 52.00 80.00
C 52.00 87.67 52.00 95.33 52.00 103.00 Z"/>
</g>
<g fill="#6BC3F2" fill-opacity="1.00" stroke="None">
<path d="
M 51.00 290.00 
C 57.65 289.49 65.46 290.68 72.00 290.00 C 78.54 289.32 87.97 291.26 94.00 290.00 C 100.03 288.74 111.01 293.14 115.00 289.00
C 115.00 289.00 114.50 289.00 114.00 289.00
C 93.33 289.00 72.67 289.00 52.00 289.00
C 52.00 254.67 52.00 220.33 52.00 186.00
C 52.00 158.33 52.00 130.67 52.00 103.00
C 52.00 103.00 51.00 102.96 51.00 103.00
C 51.00 109.99 51.00 117.01 51.00 124.00 C 51.00 130.99 50.99 138.03 51.00 145.00 C 51.01 151.97 50.97 159.06 51.00 166.00 C 51.03 172.94 50.94 180.13 51.00 187.00 C 51.06 193.87 50.87 200.19 51.00 207.00 C 51.13 213.81 50.72 221.26 51.00 228.00 C 51.28 234.74 50.38 242.50 51.00 249.00 C 51.62 255.50 49.64 264.09 51.00 270.00 C 52.36 275.91 47.80 285.42 51.00 290.00 Z"/>
</g>
<g fill="#E0F5F8" fill-opacity="1.00" stroke="None">
<path d="
M 214.00 117.00 
C 221.46 116.49 228.47 117.22 236.00 117.00 C 243.53 116.78 251.40 117.10 259.00 117.00 C 266.60 116.90 274.37 117.04 282.00 117.00 C 289.64 116.96 297.35 117.02 305.00 117.00 C 312.65 116.98 320.36 117.01 328.00 117.00 C 335.64 116.99 343.38 117.00 351.00 117.00 C 358.62 117.00 366.42 117.00 374.00 117.00 C 381.58 117.00 388.43 116.99 396.00 117.00 C 403.57 117.01 411.40 116.97 419.00 117.00 C 426.60 117.03 434.41 116.94 442.00 117.00 C 449.59 117.06 457.48 116.87 465.00 117.00 C 472.52 117.13 480.64 116.71 488.00 117.00 C 495.36 117.29 504.01 116.37 511.00 117.00 C 517.99 117.63 527.83 115.60 534.00 117.00 C 540.17 118.40 551.99 113.41 556.00 118.00
C 552.40 111.75 536.51 117.50 529.00 116.00 C 521.49 114.50 508.65 116.68 500.00 116.00 C 491.35 115.32 480.12 116.32 471.00 116.00 C 461.88 115.68 452.38 116.14 443.00 116.00 C 433.62 115.86 423.52 116.06 414.00 116.00 C 404.48 115.94 394.57 116.03 385.00 116.00 C 375.43 115.97 365.54 116.01 356.00 116.00 C 346.46 115.99 337.54 116.00 328.00 116.00 C 318.46 116.00 308.57 115.99 299.00 116.00 C 289.43 116.01 279.52 115.98 270.00 116.00 C 260.48 116.02 250.39 115.96 241.00 116.00 C 231.61 116.04 222.55 115.47 214.00 117.00 Z"/>
</g>
<g fill="#84DCF1" fill-opacity="1.00" stroke="None">
<path d="
M 196.00 122.00 
C 206.59 118.19 216.07 117.67 228.00 118.00 C 239.93 118.33 252.86 117.85 265.00 118.00 C 277.14 118.15 289.78 117.92 302.00 118.00 C 314.22 118.08 326.78 117.94 339.00 118.00 C 351.22 118.06 363.86 117.91 376.00 118.00 C 388.14 118.09 399.96 117.83 412.00 118.00 C 424.04 118.17 437.13 117.64 449.00 118.00 C 460.87 118.36 474.62 117.21 486.00 118.00 C 497.38 118.79 512.75 116.26 523.00 118.00 C 533.25 119.74 551.30 112.78 557.00 121.00
C 556.71 120.23 556.34 118.59 556.00 118.00
C 551.99 113.41 540.17 118.40 534.00 117.00 C 527.83 115.60 517.99 117.63 511.00 117.00 C 504.01 116.37 495.36 117.29 488.00 117.00 C 480.64 116.71 472.52 117.13 465.00 117.00 C 457.48 116.87 449.59 117.06 442.00 117.00 C 434.41 116.94 426.60 117.03 419.00 117.00 C 411.40 116.97 403.57 117.01 396.00 117.00 C 388.43 116.99 381.58 117.00 374.00 117.00 C 366.42 117.00 358.62 117.00 351.00 117.00 C 343.38 117.00 335.64 116.99 328.00 117.00 C 320.36 117.01 312.65 116.98 305.00 117.00 C 297.35 117.02 289.64 116.96 282.00 117.00 C 274.37 117.04 266.60 116.90 259.00 117.00 C 251.40 117.10 243.53 116.78 236.00 117.00 C 228.47 117.22 221.46 116.49 214.00 117.00
C 207.04 117.47 201.88 119.09 196.00 122.00 Z"/>
</g>
<g fill="#22C2EB" fill-opacity="1.00" stroke="None">
<path d="
M 196.00 122.00 
C 187.99 124.89 180.02 130.46 175.00 138.00
C 184.24 126.18 200.42 118.46 209.00 129.00
C 208.69 121.37 215.92 129.42 216.00 124.00
C 225.70 125.23 231.94 136.06 241.00 133.00
C 239.56 139.91 252.33 138.21 255.00 143.00
C 262.80 140.17 270.75 143.56 279.00 142.00
C 283.08 154.48 297.39 139.34 304.00 148.00
C 310.30 144.81 316.01 146.11 319.00 150.00
C 326.47 144.14 329.98 158.94 337.00 160.00
C 340.19 156.31 336.12 154.61 340.00 152.00
C 342.26 154.09 345.24 156.62 347.00 154.00
C 347.89 161.54 355.50 158.82 360.30 160.28 C 365.11 161.74 375.18 165.73 381.00 164.00
C 384.94 171.34 389.12 169.13 395.03 169.97 C 400.94 170.81 413.30 169.18 419.00 173.00
C 409.73 177.03 395.87 174.49 384.00 175.00 C 372.13 175.51 359.12 174.77 347.00 175.00 C 334.88 175.23 322.24 174.89 310.00 175.00 C 297.76 175.11 285.28 174.94 273.00 175.00 C 260.72 175.06 248.30 174.96 236.00 175.00
C 235.70 177.52 239.30 177.35 241.00 178.00
C 240.37 177.60 239.35 176.79 239.00 176.00
C 328.17 176.67 418.65 174.67 507.00 177.00
C 510.82 181.05 509.34 190.80 511.67 196.33 C 514.00 201.86 513.66 210.97 514.67 217.33 C 515.68 223.69 516.61 233.19 515.93 239.93 C 515.24 246.66 514.59 254.18 513.93 260.93 C 513.27 267.67 511.25 274.55 509.99 280.99 C 508.74 287.44 506.96 293.97 504.93 299.93 C 502.89 305.89 500.50 311.44 497.92 316.92 C 495.35 322.41 492.99 327.02 490.00 332.00
C 491.03 330.71 492.25 328.70 494.00 328.00
C 492.46 332.99 491.25 333.31 493.00 338.00
C 495.74 336.94 499.21 339.23 499.00 342.00
C 503.55 337.49 501.12 345.06 509.01 340.01 C 516.90 334.96 524.61 344.53 530.25 344.80 C 535.89 345.07 540.21 351.19 544.00 346.00
C 545.67 350.39 553.42 348.77 553.00 354.00
C 553.41 351.33 556.38 348.05 557.00 353.00
C 574.52 322.22 584.00 284.25 584.00 248.00
C 584.00 241.00 584.00 234.00 584.00 227.00
C 584.00 187.87 570.24 156.02 557.00 121.00
C 551.30 112.78 533.25 119.74 523.00 118.00 C 512.75 116.26 497.38 118.79 486.00 118.00 C 474.62 117.21 460.87 118.36 449.00 118.00 C 437.13 117.64 424.04 118.17 412.00 118.00 C 399.96 117.83 388.14 118.09 376.00 118.00 C 363.86 117.91 351.22 118.06 339.00 118.00 C 326.78 117.94 314.22 118.08 302.00 118.00 C 289.78 117.92 277.14 118.15 265.00 118.00 C 252.86 117.85 239.93 118.33 228.00 118.00 C 216.07 117.67 206.59 118.19 196.00 122.00 Z"/>
</g>
<g fill="#1EB2EE" fill-opacity="1.00" stroke="None">
<path d="
M 175.00 138.00 
C 160.35 160.01 158.34 203.91 184.77 219.23 C 211.20 234.55 239.80 239.48 267.93 249.07 C 296.05 258.67 323.24 270.09 352.00 277.00
C 361.06 279.18 376.32 281.64 380.00 292.00
C 383.78 302.65 377.01 311.52 367.00 314.00
C 351.44 317.86 333.67 313.98 317.00 315.00 C 300.33 316.02 281.82 314.62 265.00 315.00 C 248.18 315.38 230.74 315.05 214.00 315.00 C 197.26 314.95 178.38 315.47 162.00 315.00 C 145.62 314.53 126.45 316.25 111.00 315.00 C 95.55 313.75 89.53 326.77 79.75 335.75 C 69.97 344.73 63.12 352.15 54.25 361.25 C 45.38 370.34 36.47 377.92 28.00 387.00
C 27.54 387.49 27.40 388.57 27.00 389.00
C 43.43 374.96 58.77 358.23 74.00 343.00
C 85.49 331.51 91.06 316.77 109.00 316.00 C 126.94 315.23 152.39 316.35 172.00 316.00 C 191.61 315.65 214.65 316.16 235.00 316.00 C 255.35 315.84 277.34 316.08 298.00 316.00 C 318.66 315.92 340.25 316.06 361.00 316.00
C 359.04 318.66 353.89 315.28 352.00 318.00
C 357.79 316.77 365.92 319.27 369.77 321.57 C 373.62 323.88 380.64 321.70 379.00 331.00
C 383.01 336.14 388.92 330.98 391.00 328.00
C 400.42 331.84 409.42 321.26 413.00 336.00
C 414.63 331.37 414.61 335.72 418.00 336.00
C 420.09 326.73 429.28 334.62 434.00 337.00
C 434.82 332.06 435.83 330.59 441.00 331.00
C 440.58 334.51 438.01 337.23 436.00 340.00
C 442.92 335.16 444.58 325.36 447.00 318.00
C 447.69 314.74 448.01 311.84 449.00 309.00
C 449.01 308.50 449.00 307.50 449.00 307.00
C 449.00 296.57 448.68 286.92 447.00 277.00
C 443.44 255.92 422.37 238.63 403.00 232.00
C 393.66 228.80 383.94 225.38 375.00 222.00
C 368.53 220.27 362.17 218.66 356.00 216.00
C 339.20 211.45 322.58 205.65 307.00 199.00
C 293.91 195.19 281.12 189.50 268.00 186.00
C 258.94 183.58 250.01 180.70 241.00 178.00
C 239.30 177.35 235.70 177.52 236.00 175.00
C 248.30 174.96 260.72 175.06 273.00 175.00 C 285.28 174.94 297.76 175.11 310.00 175.00 C 322.24 174.89 334.88 175.23 347.00 175.00 C 359.12 174.77 372.13 175.51 384.00 175.00 C 395.87 174.49 409.73 177.03 419.00 173.00
C 413.30 169.18 400.94 170.81 395.03 169.97 C 389.12 169.13 384.94 171.34 381.00 164.00
C 375.18 165.73 365.11 161.74 360.30 160.28 C 355.50 158.82 347.89 161.54 347.00 154.00
C 345.24 156.62 342.26 154.09 340.00 152.00
C 336.12 154.61 340.19 156.31 337.00 160.00
C 329.98 158.94 326.47 144.14 319.00 150.00
C 316.01 146.11 310.30 144.81 304.00 148.00
C 297.39 139.34 283.08 154.48 279.00 142.00
C 270.75 143.56 262.80 140.17 255.00 143.00
C 252.33 138.21 239.56 139.91 241.00 133.00
C 231.94 136.06 225.70 125.23 216.00 124.00
C 215.92 129.42 208.69 121.37 209.00 129.00
C 200.42 118.46 184.24 126.18 175.00 138.00 Z"/>
</g>
<g fill="#D7F2F8" fill-opacity="1.00" stroke="None">
<path d="
M 241.00 178.00 
C 250.01 180.70 258.94 183.58 268.00 186.00
C 260.68 182.51 252.01 180.20 244.00 178.00
C 330.68 175.67 419.50 177.67 507.00 177.00
C 418.65 174.67 328.17 176.67 239.00 176.00
C 239.35 176.79 240.37 177.60 241.00 178.00 Z"/>
</g>
<g fill="#129CF2" fill-opacity="1.00" stroke="None">
<path d="
M 114.00 289.00 
C 113.33 260.82 115.33 231.43 113.00 204.00
C 113.00 209.67 113.00 215.33 113.00 221.00
C 112.34 216.68 105.69 218.68 106.00 223.00
C 104.09 219.92 103.59 224.19 101.00 221.00
C 101.53 223.68 97.52 224.34 98.00 227.00
C 90.73 227.76 88.32 220.00 81.00 221.00
C 82.40 216.00 77.55 218.44 76.00 215.00
C 76.20 220.80 75.16 216.56 73.00 216.00
C 66.44 224.28 55.34 222.03 53.00 232.00
C 53.03 216.75 53.40 200.52 52.00 186.00
C 52.00 220.33 52.00 254.67 52.00 289.00
C 72.67 289.00 93.33 289.00 114.00 289.00 Z"/>
</g>
<g fill="#E7F5FB" fill-opacity="1.00" stroke="None">
<path d="
M 115.00 289.00 
C 111.01 293.14 100.03 288.74 94.00 290.00 C 87.97 291.26 78.54 289.32 72.00 290.00 C 65.46 290.68 57.65 289.49 51.00 290.00
C 53.72 293.89 67.77 290.29 73.00 291.00 C 78.23 291.71 90.57 291.51 96.00 291.00 C 101.43 290.49 114.53 294.42 116.00 288.00 C 117.47 281.58 115.34 272.10 116.00 265.00 C 116.66 257.90 115.71 249.40 116.00 242.00 C 116.29 234.60 115.89 226.53 116.00 219.00 C 116.11 211.47 116.00 203.56 116.00 196.00
C 116.00 196.00 115.00 195.96 115.00 196.00
C 115.00 226.57 117.75 258.57 115.00 289.00 Z"/>
</g>
<g fill="#91DAF3" fill-opacity="1.00" stroke="None">
<path d="
M 356.00 216.00 
C 340.57 209.34 323.45 203.79 307.00 199.00
C 322.58 205.65 339.20 211.45 356.00 216.00 Z"/>
</g>
<g fill="#B7E8F6" fill-opacity="1.00" stroke="None">
<path d="
M 403.00 232.00 
C 394.38 227.64 384.58 224.56 375.00 222.00
C 383.94 225.38 393.66 228.80 403.00 232.00 Z"/>
</g>
<g fill="#B1E9F3" fill-opacity="1.00" stroke="None">
<path d="
M 584.00 248.00 
C 584.63 241.46 584.64 233.61 584.00 227.00
C 584.00 234.00 584.00 241.00 584.00 248.00 Z"/>
</g>
<g fill="#9AD9F1" fill-opacity="1.00" stroke="None">
<path d="
M 380.00 292.00 
C 376.32 281.64 361.06 279.18 352.00 277.00
C 359.94 279.72 375.87 282.97 380.00 292.00 Z"/>
</g>
<g fill="#9BDFF2" fill-opacity="1.00" stroke="None">
<path d="
M 449.00 307.00 
C 452.58 298.59 449.45 285.09 447.00 277.00
C 448.68 286.92 449.00 296.57 449.00 307.00 Z"/>
</g>
<g fill="#A1E3F4" fill-opacity="1.00" stroke="None">
<path d="
M 447.00 318.00 
C 447.88 315.33 448.92 312.26 449.00 309.00
C 448.01 311.84 447.69 314.74 447.00 318.00 Z"/>
</g>
<g fill="#D4ECF7" fill-opacity="1.00" stroke="None">
<path d="
M 28.00 387.00 
C 36.47 377.92 45.38 370.34 54.25 361.25 C 63.12 352.15 69.97 344.73 79.75 335.75 C 89.53 326.77 95.55 313.75 111.00 315.00 C 126.45 316.25 145.62 314.53 162.00 315.00 C 178.38 315.47 197.26 314.95 214.00 315.00 C 230.74 315.05 248.18 315.38 265.00 315.00 C 281.82 314.62 300.33 316.02 317.00 315.00 C 333.67 313.98 351.44 317.86 367.00 314.00
C 350.10 316.09 331.98 313.06 315.00 314.00 C 298.02 314.94 280.94 313.63 264.00 314.00 C 247.05 314.37 228.76 313.93 212.00 314.00 C 195.24 314.07 177.28 314.19 161.00 314.00 C 144.72 313.81 124.26 314.56 109.00 314.00 C 93.74 313.44 89.36 326.95 79.25 335.25 C 69.14 343.54 62.63 352.83 53.25 361.25 C 43.87 369.66 36.75 378.25 28.00 387.00 Z"/>
</g>
<g fill="#0B9CEA" fill-opacity="1.00" stroke="None">
<path d="
M 74.00 343.00 
C 72.27 346.41 69.83 350.21 68.00 355.00
C 74.21 355.20 81.55 353.44 87.08 354.07 C 92.61 354.69 97.17 360.51 102.00 355.00
C 109.68 358.43 116.22 356.98 123.00 360.00
C 123.40 366.71 130.87 372.85 137.00 371.00
C 137.07 374.72 134.53 376.95 132.00 380.00
C 134.55 377.45 138.73 372.36 142.00 371.00
C 188.81 366.76 241.58 374.06 288.00 371.00 C 334.42 367.94 379.86 379.85 420.00 357.00
C 425.97 352.65 430.05 345.15 436.00 341.00
C 436.00 341.00 435.76 340.32 436.00 340.00
C 438.01 337.23 440.58 334.51 441.00 331.00
C 435.83 330.59 434.82 332.06 434.00 337.00
C 429.28 334.62 420.09 326.73 418.00 336.00
C 414.61 335.72 414.63 331.37 413.00 336.00
C 409.42 321.26 400.42 331.84 391.00 328.00
C 388.92 330.98 383.01 336.14 379.00 331.00
C 380.64 321.70 373.62 323.88 369.77 321.57 C 365.92 319.27 357.79 316.77 352.00 318.00
C 353.89 315.28 359.04 318.66 361.00 316.00
C 340.25 316.06 318.66 315.92 298.00 316.00 C 277.34 316.08 255.35 315.84 235.00 316.00 C 214.65 316.16 191.61 315.65 172.00 316.00 C 152.39 316.35 126.94 315.23 109.00 316.00 C 91.06 316.77 85.49 331.51 74.00 343.00 Z"/>
</g>
<g fill="#0DB1E5" fill-opacity="1.00" stroke="None">
<path d="
M 490.00 332.00 
C 486.25 336.70 483.32 342.26 480.00 347.00
C 474.12 355.40 465.64 363.41 458.00 370.00
C 457.81 370.30 456.87 374.43 457.00 376.00
C 464.78 369.95 472.40 382.87 480.75 383.25 C 489.11 383.63 485.49 386.90 494.25 387.20 C 503.00 387.50 515.11 389.72 523.00 388.00
C 522.81 390.78 524.44 393.81 527.00 395.00
C 521.98 401.49 514.97 406.56 510.00 413.00
C 518.91 405.39 527.22 396.42 535.00 388.00
C 543.80 376.85 550.13 365.07 557.00 353.00
C 556.38 348.05 553.41 351.33 553.00 354.00
C 553.42 348.77 545.67 350.39 544.00 346.00
C 540.21 351.19 535.89 345.07 530.25 344.80 C 524.61 344.53 516.90 334.96 509.01 340.01 C 501.12 345.06 503.55 337.49 499.00 342.00
C 499.21 339.23 495.74 336.94 493.00 338.00
C 491.25 333.31 492.46 332.99 494.00 328.00
C 492.25 328.70 491.03 330.71 490.00 332.00 Z"/>
</g>
<g fill="#44BBEF" fill-opacity="1.00" stroke="None">
<path d="
M 420.00 357.00 
C 424.43 354.48 432.26 348.35 435.00 344.00
C 435.38 343.20 435.67 341.89 436.00 341.00
C 430.05 345.15 425.97 352.65 420.00 357.00 Z"/>
</g>
<g fill="#0481E7" fill-opacity="1.00" stroke="None">
<path d="
M 27.00 389.00 
C 19.91 395.06 13.19 402.13 7.00 409.00
C 22.52 407.82 42.97 410.58 58.00 409.00 C 73.03 407.42 94.37 413.27 106.25 406.25 C 118.12 399.22 121.49 387.79 132.00 380.00
C 134.53 376.95 137.07 374.72 137.00 371.00
C 130.87 372.85 123.40 366.71 123.00 360.00
C 116.22 356.98 109.68 358.43 102.00 355.00
C 97.17 360.51 92.61 354.69 87.08 354.07 C 81.55 353.44 74.21 355.20 68.00 355.00
C 69.83 350.21 72.27 346.41 74.00 343.00
C 58.77 358.23 43.43 374.96 27.00 389.00 Z"/>
</g>
<g fill="#ACDEF5" fill-opacity="1.00" stroke="None">
<path d="
M 420.00 357.00 
C 379.86 379.85 334.42 367.94 288.00 371.00 C 241.58 374.06 188.81 366.76 142.00 371.00
C 141.96 371.00 142.00 372.00 142.00 372.00
C 159.60 373.59 178.41 371.26 196.00 372.00 C 213.59 372.74 231.59 371.65 249.00 372.00 C 266.41 372.35 286.03 371.78 303.00 372.00 C 319.97 372.22 340.09 371.78 356.00 372.00 C 371.91 372.22 391.48 371.91 403.98 365.98 C 416.47 360.04 428.93 356.80 435.00 344.00
C 432.26 348.35 424.43 354.48 420.00 357.00 Z"/>
</g>
<g fill="#86D2EE" fill-opacity="1.00" stroke="None">
<path d="
M 424.00 391.00 
C 436.42 386.53 447.90 378.71 458.00 370.00
C 465.64 363.41 474.12 355.40 480.00 347.00
C 464.64 365.70 444.33 379.91 424.00 391.00 Z"/>
</g>
<g fill="#099EE7" fill-opacity="1.00" stroke="None">
<path d="
M 424.00 391.00 
C 414.09 394.57 404.49 398.33 394.00 400.00
C 361.14 409.57 320.45 405.00 285.00 405.00
C 287.94 405.28 292.35 406.86 296.00 406.00
C 295.53 411.07 303.14 410.58 301.00 415.00
C 305.71 415.66 307.31 410.71 312.00 411.00
C 307.81 415.27 317.46 415.28 313.00 419.00
C 315.01 421.80 315.30 416.40 317.00 416.00
C 316.08 419.14 316.95 419.46 318.00 422.00
C 320.31 417.55 323.78 424.01 325.00 426.00
C 328.14 423.17 327.36 423.38 330.30 425.71 C 333.25 428.05 337.09 424.71 336.00 430.00
C 337.99 424.31 339.50 429.96 341.00 433.00
C 343.22 432.08 338.80 427.62 343.00 428.00
C 340.00 431.92 349.09 434.54 344.00 430.00
C 348.91 428.42 346.97 434.71 352.00 434.00
C 347.81 429.13 353.32 433.90 356.00 434.00
C 352.75 429.66 364.56 437.06 368.00 434.00
C 367.24 438.03 371.12 435.25 374.00 435.00
C 375.12 438.88 378.92 439.87 376.00 443.00
C 378.34 443.65 381.31 443.52 382.00 447.00
C 384.60 446.50 389.58 447.19 390.00 444.00
C 393.86 446.51 396.99 446.30 401.00 447.00
C 402.93 444.44 404.91 442.94 405.00 440.00
C 406.20 443.13 408.90 440.69 411.00 442.00
C 409.87 446.97 418.14 449.98 420.00 445.00
C 423.38 445.84 424.03 448.80 427.00 446.00
C 426.89 449.79 432.83 448.91 432.00 453.00
C 435.33 454.52 435.73 447.13 436.00 453.00
C 436.62 451.26 440.26 449.72 440.00 453.00
C 443.09 451.87 446.71 450.54 450.00 450.00
C 450.00 450.00 450.53 450.11 451.00 450.00
C 458.94 443.63 471.65 439.37 481.00 435.00
C 483.27 433.58 485.81 432.27 488.00 431.00
C 495.39 425.62 502.89 419.08 510.00 413.00
C 514.97 406.56 521.98 401.49 527.00 395.00
C 524.44 393.81 522.81 390.78 523.00 388.00
C 515.11 389.72 503.00 387.50 494.25 387.20 C 485.49 386.90 489.11 383.63 480.75 383.25 C 472.40 382.87 464.78 369.95 457.00 376.00
C 456.87 374.43 457.81 370.30 458.00 370.00
C 447.90 378.71 436.42 386.53 424.00 391.00 Z"/>
</g>
<g fill="#71B6EE" fill-opacity="1.00" stroke="None">
<path d="
M 132.00 380.00 
C 121.49 387.79 118.12 399.22 106.25 406.25 C 94.37 413.27 73.03 407.42 58.00 409.00 C 42.97 410.58 22.52 407.82 7.00 409.00
C 13.19 402.13 19.91 395.06 27.00 389.00
C 27.40 388.57 27.54 387.49 28.00 387.00
C 20.59 394.20 11.46 401.44 6.00 410.00
C 16.79 409.48 28.28 410.70 39.00 410.00 C 49.72 409.30 61.53 411.34 72.00 410.00 C 82.47 408.66 94.07 412.97 104.00 410.00
C 108.23 408.44 111.14 401.03 115.25 398.25 C 119.35 395.47 122.99 390.36 126.75 386.75 C 130.51 383.14 135.38 378.69 139.00 375.00
C 139.99 373.81 140.69 372.97 142.00 372.00
C 142.00 372.00 141.96 371.00 142.00 371.00
C 138.73 372.36 134.55 377.45 132.00 380.00 Z"/>
</g>
<g fill="#DCEFFA" fill-opacity="1.00" stroke="None">
<path d="
M 104.00 410.00 
C 110.84 407.95 115.91 397.16 121.75 392.75 C 127.60 388.34 134.29 380.68 139.00 375.00
C 135.38 378.69 130.51 383.14 126.75 386.75 C 122.99 390.36 119.35 395.47 115.25 398.25 C 111.14 401.03 108.23 408.44 104.00 410.00 Z"/>
</g>
<g fill="#A7E0F4" fill-opacity="1.00" stroke="None">
<path d="
M 510.00 413.00 
C 502.89 419.08 495.39 425.62 488.00 431.00
C 505.49 420.83 522.23 404.18 535.00 388.00
C 527.22 396.42 518.91 405.39 510.00 413.00 Z"/>
</g>
<g fill="#74C4EF" fill-opacity="1.00" stroke="None">
<path d="
M 369.00 403.00 
C 352.35 404.61 334.42 403.66 317.00 404.00 C 299.58 404.34 280.31 403.27 263.00 404.00 C 245.69 404.73 225.75 402.39 209.00 404.00 C 192.25 405.61 172.44 398.61 159.00 408.00
C 159.00 408.00 159.23 408.84 159.00 409.00
C 159.68 408.20 161.17 407.58 162.00 407.00
C 171.71 400.21 188.43 406.63 201.00 405.00 C 213.57 403.37 229.74 405.61 243.00 405.00 C 256.26 404.39 271.56 405.00 285.00 405.00
C 320.45 405.00 361.14 409.57 394.00 400.00
C 385.65 401.33 377.72 403.00 369.00 403.00 Z"/>
</g>
<g fill="#DEF0F7" fill-opacity="1.00" stroke="None">
<path d="
M 159.00 408.00 
C 172.44 398.61 192.25 405.61 209.00 404.00 C 225.75 402.39 245.69 404.73 263.00 404.00 C 280.31 403.27 299.58 404.34 317.00 404.00 C 334.42 403.66 352.35 404.61 369.00 403.00
C 354.89 403.00 340.04 402.87 326.00 403.00 C 311.96 403.13 296.77 402.64 283.00 403.00 C 269.23 403.36 253.13 402.18 240.00 403.00 C 226.87 403.82 208.70 401.16 197.00 403.00 C 185.30 404.84 164.55 396.66 159.00 408.00 Z"/>
</g>
<g fill="#078FE7" fill-opacity="1.00" stroke="None">
<path d="
M 162.00 407.00 
C 161.01 407.93 156.55 414.06 157.00 417.00
C 162.81 413.36 164.88 425.02 171.00 422.00
C 170.97 424.26 175.43 427.41 180.00 426.00
C 177.17 431.35 182.62 426.51 181.00 433.00
C 182.33 430.06 183.02 427.89 183.00 433.00
C 189.16 434.82 197.48 436.10 200.00 432.00
C 204.47 435.81 209.61 434.13 214.25 433.20 C 218.89 432.27 224.89 445.31 229.00 439.00
C 228.73 442.90 235.00 442.40 235.00 446.00
C 242.53 443.10 254.43 453.62 265.00 448.00
C 267.71 455.28 281.62 453.35 283.00 463.00
C 288.86 463.82 291.97 462.63 293.00 457.00
C 296.15 456.65 300.30 456.54 299.00 461.00
C 304.62 459.14 309.28 463.46 315.00 463.00
C 291.40 466.00 264.53 462.00 241.00 465.00
C 275.04 465.00 312.28 464.86 346.00 465.00 C 379.72 465.14 409.64 464.07 440.00 453.00
C 440.26 449.72 436.62 451.26 436.00 453.00
C 435.73 447.13 435.33 454.52 432.00 453.00
C 432.83 448.91 426.89 449.79 427.00 446.00
C 424.03 448.80 423.38 445.84 420.00 445.00
C 418.14 449.98 409.87 446.97 411.00 442.00
C 408.90 440.69 406.20 443.13 405.00 440.00
C 404.91 442.94 402.93 444.44 401.00 447.00
C 396.99 446.30 393.86 446.51 390.00 444.00
C 389.58 447.19 384.60 446.50 382.00 447.00
C 381.31 443.52 378.34 443.65 376.00 443.00
C 378.92 439.87 375.12 438.88 374.00 435.00
C 371.12 435.25 367.24 438.03 368.00 434.00
C 364.56 437.06 352.75 429.66 356.00 434.00
C 353.32 433.90 347.81 429.13 352.00 434.00
C 346.97 434.71 348.91 428.42 344.00 430.00
C 349.09 434.54 340.00 431.92 343.00 428.00
C 338.80 427.62 343.22 432.08 341.00 433.00
C 339.50 429.96 337.99 424.31 336.00 430.00
C 337.09 424.71 333.25 428.05 330.30 425.71 C 327.36 423.38 328.14 423.17 325.00 426.00
C 323.78 424.01 320.31 417.55 318.00 422.00
C 316.95 419.46 316.08 419.14 317.00 416.00
C 315.30 416.40 315.01 421.80 313.00 419.00
C 317.46 415.28 307.81 415.27 312.00 411.00
C 307.31 410.71 305.71 415.66 301.00 415.00
C 303.14 410.58 295.53 411.07 296.00 406.00
C 292.35 406.86 287.94 405.28 285.00 405.00
C 271.56 405.00 256.26 404.39 243.00 405.00 C 229.74 405.61 213.57 403.37 201.00 405.00 C 188.43 406.63 171.71 400.21 162.00 407.00 Z"/>
</g>
<g fill="#0581E5" fill-opacity="1.00" stroke="None">
<path d="
M 159.00 409.00 
C 158.51 409.58 158.37 410.39 158.00 411.00
C 152.59 419.88 142.94 426.44 136.00 434.00
C 135.29 434.94 134.68 436.10 134.00 437.00
C 130.85 441.16 126.59 444.41 123.00 448.00
C 121.38 449.89 119.66 452.06 118.00 454.00
C 114.99 457.53 110.66 460.86 109.00 465.00
C 153.00 465.00 197.00 465.00 241.00 465.00
C 264.53 462.00 291.40 466.00 315.00 463.00
C 309.28 463.46 304.62 459.14 299.00 461.00
C 300.30 456.54 296.15 456.65 293.00 457.00
C 291.97 462.63 288.86 463.82 283.00 463.00
C 281.62 453.35 267.71 455.28 265.00 448.00
C 254.43 453.62 242.53 443.10 235.00 446.00
C 235.00 442.40 228.73 442.90 229.00 439.00
C 224.89 445.31 218.89 432.27 214.25 433.20 C 209.61 434.13 204.47 435.81 200.00 432.00
C 197.48 436.10 189.16 434.82 183.00 433.00
C 183.02 427.89 182.33 430.06 181.00 433.00
C 182.62 426.51 177.17 431.35 180.00 426.00
C 175.43 427.41 170.97 424.26 171.00 422.00
C 164.88 425.02 162.81 413.36 157.00 417.00
C 156.55 414.06 161.01 407.93 162.00 407.00
C 161.17 407.58 159.68 408.20 159.00 409.00 Z"/>
</g>
<g fill="#CDE5F5" fill-opacity="1.00" stroke="None">
<path d="
M 130.00 440.00 
C 131.11 438.93 133.00 438.07 134.00 437.00
C 134.68 436.10 135.29 434.94 136.00 434.00
C 142.39 425.55 150.91 418.60 158.00 411.00
C 158.37 410.39 158.51 409.58 159.00 409.00
C 148.00 416.66 138.64 429.89 130.00 440.00 Z"/>
</g>
<g fill="#61AEEA" fill-opacity="1.00" stroke="None">
<path d="
M 136.00 434.00 
C 142.94 426.44 152.59 419.88 158.00 411.00
C 150.91 418.60 142.39 425.55 136.00 434.00 Z"/>
</g>
<g fill="#8DD2F2" fill-opacity="1.00" stroke="None">
<path d="
M 451.00 450.00 
C 461.45 447.53 472.10 440.57 481.00 435.00
C 471.65 439.37 458.94 443.63 451.00 450.00 Z"/>
</g>
<g fill="#71B2E8" fill-opacity="1.00" stroke="None">
<path d="
M 130.00 440.00 
C 127.78 442.60 125.27 445.35 123.00 448.00
C 126.59 444.41 130.85 441.16 134.00 437.00
C 133.00 438.07 131.11 438.93 130.00 440.00 Z"/>
</g>
<g fill="#8DCAF0" fill-opacity="1.00" stroke="None">
<path d="
M 440.00 453.00 
C 409.64 464.07 379.72 465.14 346.00 465.00 C 312.28 464.86 275.04 465.00 241.00 465.00
C 197.00 465.00 153.00 465.00 109.00 465.00
C 110.66 460.86 114.99 457.53 118.00 454.00
C 114.51 457.45 108.49 460.78 108.00 466.00
C 127.86 465.97 148.19 466.04 168.00 466.00 C 187.81 465.96 208.36 466.08 228.00 466.00 C 247.64 465.92 267.68 466.17 287.00 466.00 C 306.32 465.83 328.33 466.36 347.00 466.00 C 365.67 465.64 387.60 467.73 404.00 463.00 C 420.39 458.27 437.28 460.92 450.00 450.00
C 446.71 450.54 443.09 451.87 440.00 453.00 Z"/>
</g>
</svg>