<?xml version="1.0" encoding="UTF-8"?>
<svg version="1.1" xmlns="http://www.w3.org/2000/svg" width="612" height="408">
<path d="M0 0 C15.56136488 -0.09401212 31.12265135 -0.16425469 46.6842308 -0.20724869 C53.9119804 -0.22775434 61.13955217 -0.25564089 68.3671875 -0.30175781 C74.67686291 -0.3419979 80.98640938 -0.36751961 87.29620957 -0.37635398 C90.62821282 -0.38150704 93.95955894 -0.39555442 97.29149628 -0.42292023 C127.19751279 -0.65852413 153.84582668 3.20300519 176.1484375 25.0234375 C193.45622242 42.70671335 202.82707224 66.09735723 203.03125 90.77734375 C202.16212419 111.48426621 195.10603066 129.75286186 181 145 C180.30261719 145.78890625 179.60523438 146.5778125 178.88671875 147.390625 C169.57952122 157.39543697 154.99137698 167.06724153 141 168 C141.31539835 165.02342804 141.84677427 164.12777932 144.1875 162.17578125 C145.115625 161.56089844 146.04375 160.94601562 147 160.3125 C160.74921669 150.61344017 169.59268631 137.89256155 175 122 C175.42732422 120.86498047 175.42732422 120.86498047 175.86328125 119.70703125 C182.0633616 102.6347721 180.53902444 80.36978203 173 64 C164.6482575 48.67784645 151.32990074 35.20166193 134.33862305 29.84912109 C117.64242407 25.60273133 99.93570403 26.91144443 82.88165283 27.32623291 C79.38807913 27.40857164 75.89423298 27.47705599 72.40039062 27.546875 C65.59994234 27.68472951 58.79989976 27.83736338 52 28 C52.14046253 29.42546387 52.28608508 30.85041981 52.43383789 32.27514648 C52.55463463 33.46550758 52.55463463 33.46550758 52.6778717 34.67991638 C54.74011228 49.53291328 66.00466443 67.06293921 77.125 76.875 C80.55135465 78.93081279 83.95227404 79.13447563 87.88671875 79.24609375 C89.2953418 79.29540039 89.2953418 79.29540039 90.73242188 79.34570312 C92.6828431 79.40629123 94.63336765 79.46365008 96.58398438 79.51757812 C105.73158815 79.84806415 113.37816417 80.21261828 120 87 C121.66816613 92.00449839 121.8978967 97.03317865 119.6875 101.875 C119.130625 102.57625 118.57375 103.2775 118 104 C117.608125 104.556875 117.21625 105.11375 116.8125 105.6875 C111.64250862 109.43128686 104.43478054 109.30819143 98.29296875 109.30078125 C97.48692703 109.30506638 96.68088531 109.3093515 95.85041809 109.31376648 C94.15541517 109.31947356 92.46038777 109.32003699 90.76538086 109.31567383 C88.20447924 109.3125209 85.64474312 109.33599356 83.08398438 109.36132812 C62.24368252 109.45640365 62.24368252 109.45640365 55.79833984 104.20678711 C50.51022919 98.66332377 46.90594973 92.08751144 43.3125 85.375 C42.09969314 83.1571501 40.88613372 80.9397116 39.671875 78.72265625 C39.06408203 77.6052002 38.45628906 76.48774414 37.83007812 75.33642578 C35.51317971 71.11247518 33.12915448 66.92900094 30.73876953 62.74633789 C26.22054684 54.83846109 21.86404347 46.92438132 17.87890625 38.734375 C14.43575211 31.77334379 10.60255435 25.00606499 6.8671875 18.19921875 C6.1551416 16.89476807 6.1551416 16.89476807 5.42871094 15.56396484 C4.47431544 13.85120655 3.49284232 12.15326576 2.48535156 10.47119141 C2.01838867 9.68276855 1.55142578 8.8943457 1.0703125 8.08203125 C0.64766113 7.38956299 0.22500977 6.69709473 -0.21044922 5.98364258 C-1.18089691 3.5455203 -0.72077577 2.46145266 0 0 Z " fill="#0DA4AD" transform="translate(217,115)"/>
<path d="M0 0 C6.17062815 -0.07485365 12.34098472 -0.12893104 18.51196289 -0.16479492 C20.6057598 -0.17976556 22.699526 -0.20014933 24.79321289 -0.22631836 C41.71694033 -0.4323604 59.9120448 -0.65169002 73 12 C73 12.66 73 13.32 73 14 C74.32 14.66 75.64 15.32 77 16 C77 16.66 77 17.32 77 18 C78.485 18.495 78.485 18.495 80 19 C90.34277927 33.61751668 93.17599404 49.6957911 90.49609375 67.3125 C89.83269687 69.9812509 89.02438804 72.44939821 88 75 C87.67128906 75.82371094 87.34257812 76.64742188 87.00390625 77.49609375 C80.64448126 91.60125438 69.94452413 100.93154968 56 107 C55.2884375 107.32226562 54.576875 107.64453125 53.84375 107.9765625 C42.81387966 112.13218266 28.49241023 111.24242007 17.37109375 107.9296875 C12.6907073 106.63892044 7.96028081 105.75387935 3.1875 104.875 C2.23794434 104.6987207 1.28838867 104.52244141 0.31005859 104.34082031 C-6.58545216 103.11721329 -13.29911195 102.5304043 -20.296875 102.46875 C-23 102 -23 102 -24.5859375 100.30859375 C-25.20519992 96.85591364 -23.82426677 95.40748247 -21.875 92.5625 C-21.25367188 91.63566406 -20.63234375 90.70882812 -19.9921875 89.75390625 C-19.33476562 88.84511719 -18.67734375 87.93632812 -18 87 C-17.40445312 86.14277344 -16.80890625 85.28554687 -16.1953125 84.40234375 C-12.2793761 80.11711085 -8.26731014 77.84328733 -2.50854492 77.4699707 C-0.83280373 77.43577233 0.84344535 77.42202341 2.51953125 77.42578125 C3.86745003 77.40453438 3.86745003 77.40453438 5.24259949 77.38285828 C8.09935549 77.3411736 10.95548386 77.32577722 13.8125 77.3125 C16.6585085 77.28323948 19.50436659 77.24843627 22.3502655 77.21000671 C24.11444786 77.18790381 25.87872124 77.17185564 27.64302063 77.16316223 C42.01174703 77.13865873 42.01174703 77.13865873 54 70 C59.84590823 63.5393674 60.88713329 57.20088868 60.5234375 48.63671875 C59.58114757 42.08991335 57.22786233 37.22786233 52.5625 32.5625 C45.84867182 28.46870233 40.82229747 26.98598078 32.97216797 26.81201172 C22.8563037 26.52971887 16.61232614 24.62907834 9.1875 17.5 C5.00075534 13.02318066 1.36552831 8.72706854 -1 3 C-0.67 2.01 -0.34 1.02 0 0 Z " fill="#283450" transform="translate(292,156)"/>
<path d="M0 0 C1.91674805 0.20019531 1.91674805 0.20019531 4 1 C5.26098633 2.65136719 5.26098633 2.65136719 6.33203125 4.796875 C6.73510498 5.58489502 7.13817871 6.37291504 7.5534668 7.18481445 C7.96894775 8.03132568 8.38442871 8.87783691 8.8125 9.75 C9.68901231 11.48883207 10.56662179 13.22711149 11.4453125 14.96484375 C12.08968262 16.25044189 12.08968262 16.25044189 12.74707031 17.56201172 C13.85904379 19.72572317 15.02164176 21.83764324 16.2421875 23.94140625 C16.88414062 25.05386719 17.52609375 26.16632813 18.1875 27.3125 C18.75855469 28.27800781 19.32960937 29.24351562 19.91796875 30.23828125 C22.03234264 35.63489619 19.67752949 40.12474393 17.5 45.1875 C12.62163356 56.85753004 8.92022175 68.98400968 5 81 C5.61211838 81.01173248 6.22423676 81.02346497 6.85490417 81.03555298 C62.45086067 82.1472088 62.45086067 82.1472088 85.02099609 88.22827148 C89.56057 89.40427486 94.14670108 90.34280237 98.73681641 91.29882812 C103.85841538 92.39932433 108.92645293 93.69871559 114 95 C115.58304462 95.39698642 117.16634034 95.79297426 118.75 96.1875 C120.35875 96.5896875 120.35875 96.5896875 122 97 C121 100 121 100 118.4375 101.46484375 C99.69873297 109.4927019 82.65510751 110.57519969 62.42937922 110.40557575 C58.88740502 110.38023271 55.34541087 110.37819462 51.80335999 110.37347412 C45.12434634 110.36113942 38.44560078 110.32844965 31.76670414 110.28807616 C24.1510153 110.24305865 16.53531231 110.22129679 8.91952312 110.20129442 C-6.72047211 110.15970606 -22.36020122 110.08954344 -38 110 C-38.07584758 103.4378081 -38.07584758 103.4378081 -36.71484375 100.1796875 C-36.43527832 99.49068359 -36.15571289 98.80167969 -35.86767578 98.09179688 C-35.56071777 97.36025391 -35.25375977 96.62871094 -34.9375 95.875 C-34.28491835 94.25895727 -33.6352764 92.64172493 -32.98828125 91.0234375 C-32.65521973 90.19166992 -32.3221582 89.35990234 -31.97900391 88.50292969 C-30.42754293 84.53645139 -29.01873774 80.52413797 -27.625 76.5 C-27.20045532 75.2768811 -27.20045532 75.2768811 -26.76733398 74.02905273 C-25.84168615 71.35379508 -24.92032342 68.67709385 -24 66 C-14.97682257 39.77356314 -14.97682257 39.77356314 -10.53662109 27.87915039 C-7.98801527 21.03434464 -5.58491944 14.14130533 -3.22021484 7.23095703 C-2.94387207 6.43028809 -2.6675293 5.62961914 -2.3828125 4.8046875 C-2.13934082 4.09296387 -1.89586914 3.38124023 -1.64501953 2.64794922 C-1 1 -1 1 0 0 Z " fill="#0B8D99" transform="translate(234,186)"/>
<path d="M0 0 C15.56136488 -0.09401212 31.12265135 -0.16425469 46.6842308 -0.20724869 C53.9119804 -0.22775434 61.13955217 -0.25564089 68.3671875 -0.30175781 C74.67686291 -0.3419979 80.98640938 -0.36751961 87.29620957 -0.37635398 C90.62821282 -0.38150704 93.95955894 -0.39555442 97.29149628 -0.42292023 C123.06484108 -0.62596635 145.44785705 1.86337867 167 17 C167.33 17.66 167.66 18.32 168 19 C165.9375 19.8125 165.9375 19.8125 163 20 C160.39870926 18.65635809 158.09595521 17.04763347 156 15 C156 14.34 156 13.68 156 13 C153.03 12.67 150.06 12.34 147 12 C146.67 11.01 146.34 10.02 146 9 C143.69 8.67 141.38 8.34 139 8 C139 7.34 139 6.68 139 6 C132.30386804 5.202163 125.74233419 4.87089147 119 5 C119 4.34 119 3.68 119 3 C62.57 3.495 62.57 3.495 5 4 C5.99 7.3 6.98 10.6 8 14 C8.99 14 9.98 14 11 14 C11.84678051 15.86896555 12.67686211 17.74550181 13.5 19.625 C13.9640625 20.66914063 14.428125 21.71328125 14.90625 22.7890625 C16.02767398 26.08124291 16.207138 28.55115223 16 32 C16.66 32.33 17.32 32.66 18 33 C17.34 33.66 16.68 34.32 16 35 C15.66266846 34.38068604 15.32533691 33.76137207 14.9777832 33.12329102 C13.42307205 30.26948503 11.86778931 27.41599093 10.3125 24.5625 C9.78205078 23.58861328 9.25160156 22.61472656 8.70507812 21.61132812 C7.91713867 20.1659668 7.91713867 20.1659668 7.11328125 18.69140625 C6.33525146 17.25498779 6.33525146 17.25498779 5.54150391 15.78955078 C4.54151235 13.97993666 3.51389293 12.1852139 2.45458984 10.40966797 C1.98875488 9.62350098 1.52291992 8.83733398 1.04296875 8.02734375 C0.62426514 7.342771 0.20556152 6.65819824 -0.22583008 5.95288086 C-1.1829897 3.53839969 -0.71191677 2.4379569 0 0 Z " fill="#25AAAD" transform="translate(217,115)"/>
<path d="M0 0 C3.01651891 2.65229526 4.784333 5.80971673 6.8125 9.25 C12.94018392 19.92534761 12.94018392 19.92534761 22.81176758 26.55493164 C25.20443919 27.04158124 27.44622992 27.17685837 29.88671875 27.24609375 C30.82580078 27.27896484 31.76488281 27.31183594 32.73242188 27.34570312 C34.6828431 27.40629123 36.63336765 27.46365008 38.58398438 27.51757812 C47.73158815 27.84806415 55.37816417 28.21261828 62 35 C63.66816613 40.00449839 63.8978967 45.03317865 61.6875 49.875 C61.130625 50.57625 60.57375 51.2775 60 52 C59.608125 52.556875 59.21625 53.11375 58.8125 53.6875 C53.64250862 57.43128686 46.43478054 57.30819143 40.29296875 57.30078125 C39.48692703 57.30506638 38.68088531 57.3093515 37.85041809 57.31376648 C36.15541517 57.31947356 34.46038777 57.32003699 32.76538086 57.31567383 C30.20447924 57.3125209 27.64474312 57.33599356 25.08398438 57.36132812 C4.27673681 57.45625285 4.27673681 57.45625285 -2.1862793 52.2331543 C-7.68132223 46.49406125 -11.38799552 39.57834766 -15.125 32.625 C-15.70636719 31.56539062 -16.28773438 30.50578125 -16.88671875 29.4140625 C-18.03798687 27.31241868 -19.18299868 25.20733385 -20.32128906 23.09863281 C-21.45676557 21.00272417 -22.60493965 18.91365293 -23.76464844 16.83105469 C-24.31411133 15.84266602 -24.86357422 14.85427734 -25.4296875 13.8359375 C-25.92452637 12.95212402 -26.41936523 12.06831055 -26.92919922 11.15771484 C-28 9 -28 9 -28 7 C-26.125 7.125 -26.125 7.125 -24 8 C-22.83328724 10.74177497 -22 13.00567607 -22 16 C-21.01 16.33 -20.02 16.66 -19 17 C-15.7053537 21.19318621 -14.2209924 24.91253168 -13 30 C-12.34 30 -11.68 30 -11 30 C-11 30.99 -11 31.98 -11 33 C-10.34 33 -9.68 33 -9 33 C-8.73445313 33.56589844 -8.46890625 34.13179687 -8.1953125 34.71484375 C-7.66550781 35.81505859 -7.66550781 35.81505859 -7.125 36.9375 C-6.77695312 37.66839844 -6.42890625 38.39929688 -6.0703125 39.15234375 C-5.1315023 41.16332459 -5.1315023 41.16332459 -3 42 C-2.67 42.99 -2.34 43.98 -2 45 C-0.00334402 46.67067133 1.99651034 48.33752986 4 50 C4 50.66 4 51.32 4 52 C13.05035175 54.37077821 21.9079854 54.30523763 31.19726562 54.26074219 C33.88954763 54.24994164 36.58117473 54.26072431 39.2734375 54.2734375 C40.99218897 54.27211725 42.71094003 54.26955763 44.4296875 54.265625 C45.23074921 54.26967346 46.03181091 54.27372192 46.85714722 54.27789307 C50.70425701 54.24547869 53.74256931 54.18755099 57 52 C56.95875 51.236875 56.9175 50.47375 56.875 49.6875 C57 47 57 47 59 44 C59.16713569 41.37468476 59.16713569 41.37468476 59 39 C57.515 38.505 57.515 38.505 56 38 C56 36.02 56 34.04 56 32 C55.12375977 32.00112793 54.24751953 32.00225586 53.34472656 32.00341797 C50.03368657 31.99337922 46.72505697 31.95642962 43.41455078 31.90234375 C41.993095 31.88438717 40.5714677 31.87657762 39.14990234 31.87988281 C29.62794467 31.89332241 20.80365979 31.1416124 13 25 C11.79785156 22.35498047 11.79785156 22.35498047 11 20 C10.38125 19.690625 9.7625 19.38125 9.125 19.0625 C4.46935561 16.7346778 2.83483407 11.58708519 1 7 C0.34 6.67 -0.32 6.34 -1 6 C-0.67 4.02 -0.34 2.04 0 0 Z " fill="#217D84" transform="translate(275,167)"/>
<path d="M0 0 C0.33 0 0.66 0 1 0 C1.42161523 11.57099578 0.84895721 21.69469444 -5 32 C-5.66 32 -6.32 32 -7 32 C-7 33.65 -7 35.3 -7 37 C-4.69 37.33 -2.38 37.66 0 38 C0 37.34 0 36.68 0 36 C0.66 36 1.32 36 2 36 C2.2475 35.05125 2.495 34.1025 2.75 33.125 C4 30 4 30 5.94921875 29.08203125 C8.63611703 27.66437254 9.0001182 26.36332475 10.0625 23.5625 C11.31286876 20.30510155 12.48309506 18.39511921 15 16 C16.19027984 13.40084462 16.19027984 13.40084462 17 11 C17.66 11 18.32 11 19 11 C15.82160668 25.03528141 6.8458962 36.0088841 -3 46 C-3.58523438 46.598125 -4.17046875 47.19625 -4.7734375 47.8125 C-12.654483 55.17347651 -27.00697784 64 -38 64 C-37.68460165 61.02342804 -37.15322573 60.12777932 -34.8125 58.17578125 C-33.884375 57.56089844 -32.95625 56.94601562 -32 56.3125 C-18.25078331 46.61344017 -9.40731369 33.89256155 -4 18 C-3.57267578 16.86498047 -3.57267578 16.86498047 -3.13671875 15.70703125 C-1.23054919 10.45828946 -0.44170526 5.56548627 0 0 Z " fill="#20787E" transform="translate(396,219)"/>
<path d="M0 0 C0.71446289 0.0077092 1.42892578 0.0154184 2.16503906 0.02336121 C4.51675375 0.0525336 6.867431 0.10359145 9.21875 0.15527344 C10.85870562 0.18079267 12.49868073 0.20508674 14.13867188 0.22821045 C17.57184718 0.2797112 21.00464171 0.34118605 24.4375 0.41064453 C28.83216165 0.49945332 33.22687587 0.57095528 37.62194824 0.63592911 C41.82098805 0.69879109 46.01986293 0.77053223 50.21875 0.84277344 C51.01724365 0.85572701 51.8157373 0.86868057 52.63842773 0.88202667 C54.90491014 0.92036077 57.17117613 0.96503077 59.4375 1.01171875 C61.37012695 1.04860809 61.37012695 1.04860809 63.34179688 1.08624268 C66.25283679 1.24003406 68.88883958 1.59458876 71.71875 2.26464844 C71.71875 2.92464844 71.71875 3.58464844 71.71875 4.26464844 C72.69457031 4.32523438 73.67039062 4.38582031 74.67578125 4.44824219 C76.58423828 4.57392578 76.58423828 4.57392578 78.53125 4.70214844 C79.79582031 4.78335938 81.06039062 4.86457031 82.36328125 4.94824219 C85.71875 5.26464844 85.71875 5.26464844 88.71875 6.26464844 C89.028125 7.08964844 89.3375 7.91464844 89.65625 8.76464844 C90.006875 9.58964844 90.3575 10.41464844 90.71875 11.26464844 C92.75980639 12.15158147 92.75980639 12.15158147 94.71875 12.26464844 C94.71875 12.92464844 94.71875 13.58464844 94.71875 14.26464844 C95.37875 14.26464844 96.03875 14.26464844 96.71875 14.26464844 C96.71875 15.25464844 96.71875 16.24464844 96.71875 17.26464844 C98.36875 17.59464844 100.01875 17.92464844 101.71875 18.26464844 C101.71875 18.92464844 101.71875 19.58464844 101.71875 20.26464844 C102.37875 20.26464844 103.03875 20.26464844 103.71875 20.26464844 C111.31927486 26.92490218 116.66198975 36.45940239 117.59375 46.51464844 C117.66080345 48.09710993 117.71251429 49.68077923 117.71875 51.26464844 C115.55067293 49.09657137 115.30492767 48.19858301 114.53125 45.32714844 C109.32573272 29.11196212 96.05225145 17.46341126 81.71875 9.26464844 C64.19503514 0.33799118 41.59066059 3.12900047 22.60040283 3.59088135 C19.10682913 3.67322008 15.61298298 3.74170443 12.11914062 3.81152344 C5.31869234 3.94937794 -1.48135024 4.10201182 -8.28125 4.26464844 C-8.14449252 5.69361134 -8.00141296 7.12197002 -7.85571289 8.55004883 C-7.77672256 9.34552628 -7.69773224 10.14100372 -7.61634827 10.96058655 C-7.15517223 14.1315314 -6.04481841 16.79688745 -4.71875 19.70214844 C-2.28125 25.10884107 -2.28125 25.10884107 -2.28125 27.26464844 C-3.27125 26.93464844 -4.26125 26.60464844 -5.28125 26.26464844 C-5.94791667 24.26464844 -6.61458333 22.26464844 -7.28125 20.26464844 C-8.57480827 18.8926927 -9.90423702 17.55282187 -11.28125 16.26464844 C-12.23631921 13.3994408 -12.54037827 11.25948708 -12.65625 8.26464844 C-12.70523437 7.39839844 -12.75421875 6.53214844 -12.8046875 5.63964844 C-12.28125 3.26464844 -12.28125 3.26464844 -10.20361328 1.63275146 C-6.57029827 -0.06818329 -4.00691216 -0.0665856 0 0 Z " fill="#2B888F" transform="translate(277.28125,138.7353515625)"/>
<path d="M0 0 C3.01651891 2.65229526 4.784333 5.80971673 6.8125 9.25 C12.94018392 19.92534761 12.94018392 19.92534761 22.81176758 26.55493164 C25.20443919 27.04158124 27.44622992 27.17685837 29.88671875 27.24609375 C30.82580078 27.27896484 31.76488281 27.31183594 32.73242188 27.34570312 C34.6828431 27.40629123 36.63336765 27.46365008 38.58398438 27.51757812 C53.06090372 28.04060248 53.06090372 28.04060248 59 32 C61.26114745 37.95038802 62.03832733 43.885018 60 50 C59.01 50 58.02 50 57 50 C57.144375 49.484375 57.28875 48.96875 57.4375 48.4375 C58.15809901 45.31490429 58.57266439 42.17449308 59 39 C58.01 38.67 57.02 38.34 56 38 C56 36.02 56 34.04 56 32 C55.12375977 32.00112793 54.24751953 32.00225586 53.34472656 32.00341797 C50.03368657 31.99337922 46.72505697 31.95642962 43.41455078 31.90234375 C41.993095 31.88438717 40.5714677 31.87657762 39.14990234 31.87988281 C29.62794467 31.89332241 20.80365979 31.1416124 13 25 C11.79785156 22.35498047 11.79785156 22.35498047 11 20 C10.38125 19.690625 9.7625 19.38125 9.125 19.0625 C4.46935561 16.7346778 2.83483407 11.58708519 1 7 C0.34 6.67 -0.32 6.34 -1 6 C-0.67 4.02 -0.34 2.04 0 0 Z " fill="#2D8388" transform="translate(275,167)"/>
<path d="M0 0 C40.26 0 80.52 0 122 0 C122 0.66 122 1.32 122 2 C81.74 2.33 41.48 2.66 0 3 C0 2.01 0 1.02 0 0 Z " fill="#217277" transform="translate(217,115)"/>
<path d="M0 0 C1.27686406 2.92798138 0.96696482 4.09344568 -0.1171875 7.16015625 C-0.69538998 8.46439415 -1.28201835 9.76491479 -1.875 11.0625 C-7.11462336 23.07320328 -10.93421164 35.55243255 -15 48 C1.335 48.495 1.335 48.495 18 49 C14.3498333 51.43344446 12.56157776 51.25764254 8.21484375 51.265625 C7.55795059 51.26753845 6.90105743 51.2694519 6.22425842 51.27142334 C4.83822241 51.27278227 3.45217355 51.26910619 2.06616211 51.26074219 C-0.05839487 51.25002072 -2.18210961 51.26065541 -4.30664062 51.2734375 C-5.6536477 51.27211619 -7.00065426 51.26955438 -8.34765625 51.265625 C-9.57492432 51.26336914 -10.80219238 51.26111328 -12.06665039 51.25878906 C-15 51 -15 51 -17 49 C-17.73255984 43.26161461 -16.08860283 38.97155674 -14.01171875 33.64453125 C-12.89099213 30.83850078 -12.89099213 30.83850078 -11.9375 27.1875 C-11 24 -11 24 -9.5 21.0625 C-7.70585797 17.39946003 -6.89084128 13.97452263 -6 10 C-5.01 10 -4.02 10 -3 10 C-2.95101562 9.36191406 -2.90203125 8.72382813 -2.8515625 8.06640625 C-2.77679688 7.24011719 -2.70203125 6.41382813 -2.625 5.5625 C-2.55539063 4.73878906 -2.48578125 3.91507813 -2.4140625 3.06640625 C-2.27742187 2.38449219 -2.14078125 1.70257813 -2 1 C-1.34 0.67 -0.68 0.34 0 0 Z " fill="#277D83" transform="translate(254,219)"/>
<path d="M0 0 C0.66 0 1.32 0 2 0 C-0.80996894 12.40837771 -8.62163595 24.55947235 -18 33 C-20.2109375 33.65234375 -20.2109375 33.65234375 -22 34 C-22.33 34.66 -22.66 35.32 -23 36 C-24.65 36 -26.3 36 -28 36 C-28 35.34 -28 34.68 -28 34 C-28.66 34 -29.32 34 -30 34 C-29.690625 33.401875 -29.38125 32.80375 -29.0625 32.1875 C-27.89790296 29.91043228 -27.89790296 29.91043228 -27 27 C-20.375 25.875 -20.375 25.875 -17 27 C-17 26.34 -17 25.68 -17 25 C-16.34 25 -15.68 25 -15 25 C-14.7525 24.05125 -14.505 23.1025 -14.25 22.125 C-13 19 -13 19 -11.05078125 18.08203125 C-8.36388297 16.66437254 -7.9998818 15.36332475 -6.9375 12.5625 C-5.68713124 9.30510155 -4.51690494 7.39511921 -2 5 C-0.80972016 2.40084462 -0.80972016 2.40084462 0 0 Z " fill="#159BA4" transform="translate(413,230)"/>
<path d="M0 0 C16.15055741 -0.95314765 30.7753907 1.55066745 46.48779297 5.19775391 C51.25961096 6.28771595 56.05139622 7.27594965 60.84594727 8.26049805 C63.97812416 8.99487097 66.96611309 9.93464169 70 11 C70 11.33 70 11.66 70 12 C64.90056032 12.29294653 60.36196567 12.31059437 55.5 10.625 C49.82704182 8.69165585 44.09543732 8.23501806 38.15625 7.73486328 C34.38133879 7.39088016 32.21099867 7.14066578 29 5 C26.8018096 4.56497313 24.58511998 4.22075808 22.36328125 3.9296875 C21.06455078 3.75566406 19.76582031 3.58164062 18.42773438 3.40234375 C17.05601124 3.22639359 15.68426615 3.05061453 14.3125 2.875 C12.92894162 2.69212236 11.54547661 2.50853676 10.16210938 2.32421875 C6.77559491 1.87583007 3.38829055 1.43472885 0 1 C0 0.67 0 0.34 0 0 Z " fill="#348289" transform="translate(272,269)"/>
<path d="M0 0 C0.33 0 0.66 0 1 0 C1.0272415 1.41655793 1.04650467 2.83327045 1.0625 4.25 C1.07410156 5.03890625 1.08570313 5.8278125 1.09765625 6.640625 C1.00385306 8.90691002 0.63241063 10.8288895 0 13 C-0.66 13 -1.32 13 -2 13 C-1.979375 14.11375 -1.95875 15.2275 -1.9375 16.375 C-2 20 -2 20 -3 22 C-3.66 22 -4.32 22 -5 22 C-4.95359375 22.87011719 -4.9071875 23.74023438 -4.859375 24.63671875 C-5.01063201 28.25428229 -5.78692169 30.5205738 -7.25 33.8125 C-7.70246094 34.84503906 -8.15492188 35.87757813 -8.62109375 36.94140625 C-9.07613281 37.95074219 -9.53117188 38.96007812 -10 40 C-10.40347656 40.91652344 -10.80695313 41.83304687 -11.22265625 42.77734375 C-12.1388658 44.85605574 -13.06431798 46.92999956 -14 49 C-14.99 49 -15.98 49 -17 49 C-15.26165625 41.48373274 -12.69097103 34.43744829 -9.84521484 27.29003906 C-6.28118716 18.29269904 -3.14275098 9.15123235 0 0 Z " fill="#1D858E" transform="translate(214,241)"/>
<path d="M0 0 C1.11084961 0.02030273 1.11084961 0.02030273 2.24414062 0.04101562 C4.05891075 0.07614021 5.87330288 0.12994028 7.6875 0.1875 C7.6875 0.5175 7.6875 0.8475 7.6875 1.1875 C24.0225 1.6825 24.0225 1.6825 40.6875 2.1875 C40.6875 2.5175 40.6875 2.8475 40.6875 3.1875 C24.1875 3.5175 7.6875 3.8475 -9.3125 4.1875 C-8.43884001 12.42518615 -8.43884001 12.42518615 -5.75 19.625 C-3.3125 25.03169263 -3.3125 25.03169263 -3.3125 27.1875 C-4.3025 26.8575 -5.2925 26.5275 -6.3125 26.1875 C-6.97916667 24.1875 -7.64583333 22.1875 -8.3125 20.1875 C-9.60605827 18.81554426 -10.93548702 17.47567344 -12.3125 16.1875 C-13.26756921 13.32229236 -13.57162827 11.18233864 -13.6875 8.1875 C-13.73648437 7.32125 -13.78546875 6.455 -13.8359375 5.5625 C-13.3125 3.1875 -13.3125 3.1875 -11.30859375 1.38671875 C-7.4889414 -0.14213819 -4.0399903 -0.14080395 0 0 Z " fill="#136266" transform="translate(278.3125,138.8125)"/>
<path d="M0 0 C3 2 3 2 4 5 C4.52867716 10.42910777 4.51652211 14.57178697 1 19 C0.608125 19.556875 0.21625 20.11375 -0.1875 20.6875 C-5.44168569 24.49225516 -12.69320909 24.28823999 -18.91796875 24.23046875 C-19.73824051 24.23001053 -20.55851227 24.22955231 -21.40364075 24.2290802 C-23.12384503 24.22607971 -24.84404714 24.21826026 -26.56420898 24.20581055 C-29.19069066 24.18747773 -31.81682014 24.18530179 -34.44335938 24.18554688 C-36.12239887 24.18063328 -37.80143599 24.17480565 -39.48046875 24.16796875 C-40.2607695 24.16685593 -41.04107025 24.1657431 -41.84501648 24.16459656 C-45.68339835 24.13126051 -49.2682251 23.92842892 -53 23 C-53 22.67 -53 22.34 -53 22 C-52.42006287 21.99191315 -51.84012573 21.98382629 -51.24261475 21.97549438 C-45.20790637 21.88945308 -39.17352663 21.78994956 -33.13916016 21.68261719 C-30.88693764 21.64432843 -28.634654 21.60947539 -26.38232422 21.578125 C-23.14528553 21.53247263 -19.90866764 21.47447785 -16.671875 21.4140625 C-15.66445251 21.40251129 -14.65703003 21.39096008 -13.61907959 21.37905884 C-12.67840637 21.35918915 -11.73773315 21.33931946 -10.76855469 21.31884766 C-9.94248718 21.30552399 -9.11641968 21.29220032 -8.26531982 21.2784729 C-5.79884149 20.97527184 -4.14090571 20.23283462 -2 19 C-2 18.34 -2 17.68 -2 17 C-1.01 17 -0.02 17 1 17 C1.15873088 8.45175534 1.15873088 8.45175534 0 0 Z " fill="#1A646E" transform="translate(334,200)"/>
<path d="M0 0 C0 0.33 0 0.66 0 1 C-7.32046357 1.02337164 -14.64091884 1.04103966 -21.96141243 1.05181217 C-25.36214662 1.0569875 -28.76285492 1.0639854 -32.16357422 1.07543945 C-36.090827 1.0876986 -40.01804393 1.09327234 -43.9453125 1.09765625 C-45.73994431 1.10539818 -45.73994431 1.10539818 -47.5708313 1.11329651 C-55.75310364 1.11382921 -63.84692801 0.68349948 -72 0 C-72 -0.33 -72 -0.66 -72 -1 C-63.94147727 -1.17775959 -55.88283157 -1.34365324 -47.82376957 -1.49477577 C-44.08085262 -1.56532742 -40.33810448 -1.63982693 -36.59545898 -1.72363281 C-32.97756762 -1.80449517 -29.35960728 -1.87461609 -25.74136162 -1.93757248 C-24.36713545 -1.96331771 -22.99297371 -1.99280756 -21.61891365 -2.02626419 C-14.05751139 -2.20777366 -7.30504158 -2.0413707 0 0 Z " fill="#1DA0AB" transform="translate(344,139)"/>
<path d="M0 0 C6.29879297 -0.05082181 12.5975328 -0.08578472 18.89648438 -0.10986328 C21.03810604 -0.11990416 23.17971405 -0.13353954 25.32128906 -0.15087891 C28.40433121 -0.17521118 31.48719165 -0.18650242 34.5703125 -0.1953125 C35.52366486 -0.20563507 36.47701721 -0.21595764 37.45925903 -0.22659302 C42.38457948 -0.22741927 46.38011328 0.0565542 51 2 C51 2.33 51 2.66 51 3 C44.37972837 3.02534939 37.75946924 3.04286664 31.13916016 3.05493164 C28.88687675 3.05996123 26.63459661 3.06678566 24.38232422 3.07543945 C21.14549961 3.08756506 17.90871817 3.09324206 14.671875 3.09765625 C13.66445251 3.10281754 12.65703003 3.10797882 11.61907959 3.11329651 C10.20806976 3.11340981 10.20806976 3.11340981 8.76855469 3.11352539 C7.52945343 3.11685631 7.52945343 3.11685631 6.26531982 3.12025452 C4.04891706 3.00259676 2.12696307 2.61598788 0 2 C0 1.34 0 0.68 0 0 Z " fill="#35394D" transform="translate(292,156)"/>
<path d="M0 0 C0.33 0.66 0.66 1.32 1 2 C2.65 2 4.3 2 6 2 C6.13277344 2.62648438 6.26554688 3.25296875 6.40234375 3.8984375 C6.57894531 4.71570313 6.75554687 5.53296875 6.9375 6.375 C7.19853516 7.59316406 7.19853516 7.59316406 7.46484375 8.8359375 C7.92330693 11.029463 7.92330693 11.029463 9 13 C9.99 13 10.98 13 12 13 C12.84678051 14.86896555 13.67686211 16.74550181 14.5 18.625 C14.9640625 19.66914063 15.428125 20.71328125 15.90625 21.7890625 C17.02767398 25.08124291 17.207138 27.55115223 17 31 C17.66 31.33 18.32 31.66 19 32 C18.34 32.66 17.68 33.32 17 34 C16.66266846 33.38068604 16.32533691 32.76137207 15.9777832 32.12329102 C14.42307205 29.26948503 12.86778931 26.41599093 11.3125 23.5625 C10.78205078 22.58861328 10.25160156 21.61472656 9.70507812 20.61132812 C8.91713867 19.1659668 8.91713867 19.1659668 8.11328125 17.69140625 C7.33331787 16.25692139 7.33331787 16.25692139 6.53759766 14.79345703 C5.53826213 12.977897 4.52309579 11.17092986 3.48974609 9.37451172 C3.03293457 8.57932129 2.57612305 7.78413086 2.10546875 6.96484375 C1.6983667 6.26866943 1.29126465 5.57249512 0.87182617 4.85522461 C0 3 0 3 0 0 Z " fill="#1D7B81" transform="translate(216,116)"/>
<path d="M0 0 C0.33 1.32 0.66 2.64 1 4 C31.03 4 61.06 4 92 4 C92 4.33 92 4.66 92 5 C44.975 5.495 44.975 5.495 -3 6 C-3 4.35 -3 2.7 -3 1 C-2.01 0.67 -1.02 0.34 0 0 Z " fill="#178891" transform="translate(200,289)"/>
<path d="M0 0 C8.96414057 13.44621085 6.36847381 34.03046459 3.41796875 48.94140625 C2.97710407 50.96811509 2.49472528 52.98576136 2 55 C1.67 55 1.34 55 1 55 C1.0721875 54.20980469 1.144375 53.41960937 1.21875 52.60546875 C2.67638535 34.89115022 1.88700556 17.658056 0 0 Z " fill="#3AA4A8" transform="translate(414,175)"/>
<path d="M0 0 C0.66 0 1.32 0 2 0 C2.26554687 0.56589844 2.53109375 1.13179687 2.8046875 1.71484375 C3.15789062 2.44832031 3.51109375 3.18179688 3.875 3.9375 C4.22304688 4.66839844 4.57109375 5.39929688 4.9296875 6.15234375 C5.8684977 8.16332459 5.8684977 8.16332459 8 9 C8.33 9.99 8.66 10.98 9 12 C10.99665598 13.67067133 12.99651034 15.33752986 15 17 C15 17.66 15 18.32 15 19 C18.3 19.66 21.6 20.32 25 21 C25 21.33 25 21.66 25 22 C14.69667674 22.91359517 14.69667674 22.91359517 10.71484375 20.76953125 C6.87778683 17.4701511 4.09639004 14.15664715 3 9.125 C2.25960996 5.94014762 1.31448907 3.00454644 0 0 Z " fill="#1D9299" transform="translate(264,200)"/>
<path d="M0 0 C0.66 0 1.32 0 2 0 C-0.677863 11.8250188 -7.79329607 22.30769229 -16 31 C-16.33 30.34 -16.66 29.68 -17 29 C-16.505 27.515 -16.505 27.515 -16 26 C-15.01 26 -14.02 26 -13 26 C-12.8453125 24.6078125 -12.8453125 24.6078125 -12.6875 23.1875 C-11.93296013 19.6891788 -11.38343101 19.38343101 -9 17 C-7.90033335 14.83834348 -7.90033335 14.83834348 -7 12.5 C-5.7178878 9.2947195 -4.48219922 7.37515019 -2 5 C-0.80972016 2.40084462 -0.80972016 2.40084462 0 0 Z " fill="#21787E" transform="translate(413,230)"/>
<path d="M0 0 C1.45922693 0.11409593 2.91740598 0.24165544 4.375 0.375 C5.59316406 0.47941406 5.59316406 0.47941406 6.8359375 0.5859375 C9 1 9 1 11 3 C8.32101382 6.30177633 4.7863276 7.60606469 0.9375 9.125 C0.27226318 9.39070801 -0.39297363 9.65641602 -1.07836914 9.93017578 C-6.3425999 11.94134443 -11.33763761 12.97335359 -17 13 C-14 11 -14 11 -12 11 C-12 10.34 -12 9.68 -12 9 C-10.02 9 -8.04 9 -6 9 C-6 8.34 -6 7.68 -6 7 C-5.43410156 6.87882812 -4.86820312 6.75765625 -4.28515625 6.6328125 C-3.55167969 6.46523438 -2.81820313 6.29765625 -2.0625 6.125 C-0.96615234 5.88136719 -0.96615234 5.88136719 0.15234375 5.6328125 C2.20700294 5.17038477 2.20700294 5.17038477 3 3 C2.01 2.67 1.02 2.34 0 2 C0 1.34 0 0.68 0 0 Z " fill="#195961" transform="translate(345,281)"/>
<path d="M0 0 C8.8888847 1.36752072 16.98296512 6.57774578 24 12 C23.01 12.66 22.02 13.32 21 14 C17.48979058 13.00994093 14.72285289 11.42031368 12 9 C12 8.34 12 7.68 12 7 C9.03 6.67 6.06 6.34 3 6 C2.67 5.01 2.34 4.02 2 3 C1.34 2.67 0.68 2.34 0 2 C0 1.34 0 0.68 0 0 Z " fill="#34959B" transform="translate(361,121)"/>
<path d="M0 0 C1.765625 0.09765625 1.765625 0.09765625 4 1 C5.44036586 3.15176608 6.60483691 5.13980152 7.75 7.4375 C8.22373047 8.3356543 8.22373047 8.3356543 8.70703125 9.25195312 C11 13.68403341 11 13.68403341 11 16 C10.34 16 9.68 16 9 16 C9.33 17.32 9.66 18.64 10 20 C7.24550405 18.62275203 7.08817219 17.15619998 6 14.3125 C5.48179687 12.96478516 5.48179687 12.96478516 4.953125 11.58984375 C3.90625507 8.74527503 2.91279648 5.89052218 2 3 C1.34 3 0.68 3 0 3 C0 5.31 0 7.62 0 10 C-1.98 10.99 -1.98 10.99 -4 12 C-3.71640113 10.5608866 -3.42278601 9.12374482 -3.125 7.6875 C-2.96257812 6.88699219 -2.80015625 6.08648437 -2.6328125 5.26171875 C-2 3 -2 3 0 0 Z " fill="#377C83" transform="translate(234,186)"/>
<path d="M0 0 C0.99 0.495 0.99 0.495 2 1 C2 2.65 2 4.3 2 6 C18.335 6.495 18.335 6.495 35 7 C31.3498333 9.43344446 29.56157776 9.25764254 25.21484375 9.265625 C24.55795059 9.26753845 23.90105743 9.2694519 23.22425842 9.27142334 C21.83822241 9.27278227 20.45217355 9.26910619 19.06616211 9.26074219 C16.94160513 9.25002072 14.81789039 9.26065541 12.69335938 9.2734375 C11.3463523 9.27211619 9.99934574 9.26955438 8.65234375 9.265625 C7.42507568 9.26336914 6.19780762 9.26111328 4.93334961 9.25878906 C2 9 2 9 0 7 C-0.125 3.375 -0.125 3.375 0 0 Z " fill="#2C7A7E" transform="translate(237,261)"/>
<path d="M0 0 C0.99 0.33 1.98 0.66 3 1 C4.52257164 1.14731739 6.05000525 1.24729149 7.578125 1.31640625 C8.9381665 1.37948975 8.9381665 1.37948975 10.32568359 1.44384766 C11.29070801 1.48300293 12.25573242 1.5221582 13.25 1.5625 C14.23693848 1.6042334 15.22387695 1.6459668 16.24072266 1.68896484 C32.16471963 2.41317 32.16471963 2.41317 48 1 C47.34 1.99 46.68 2.98 46 4 C43.10105728 4.29201979 40.41929932 4.39581814 37.51953125 4.36328125 C36.25021004 4.36402901 36.25021004 4.36402901 34.95524597 4.36479187 C33.16048848 4.36244821 31.3657279 4.35270254 29.57104492 4.33618164 C26.84067886 4.31274191 24.11129945 4.31559939 21.38085938 4.32226562 C19.6354109 4.31668348 17.88996652 4.30957024 16.14453125 4.30078125 C14.92851982 4.30214836 14.92851982 4.30214836 13.6879425 4.30354309 C8.7625199 4.24287152 4.67533404 3.5665 0 2 C0 1.34 0 0.68 0 0 Z " fill="#1A989D" transform="translate(282,218)"/>
<path d="M0 0 C2.046875 3.71875 2.046875 3.71875 1.625 6.25 C1.41875 6.8275 1.2125 7.405 1 8 C0.34 8 -0.32 8 -1 8 C-1.02578125 8.65226563 -1.0515625 9.30453125 -1.078125 9.9765625 C-1.46053162 15.86910086 -2.36847603 19.19357122 -6 24 C-7.11440713 26.29905 -8.05022015 28.62555038 -9 31 C-10.39573257 26.81280229 -8.79822265 23.95576877 -7.3125 20 C-7.03647949 19.24340088 -6.76045898 18.48680176 -6.47607422 17.70727539 C-5.91940392 16.18379928 -5.35889393 14.66172034 -4.79443359 13.14111328 C-3.72033448 10.24626103 -2.67380613 7.34159495 -1.625 4.4375 C-1.08420707 2.95801366 -0.5429357 1.47870133 0 0 Z " fill="#1E666E" transform="translate(225,210)"/>
<path d="M0 0 C4.29 0 8.58 0 13 0 C13 0.66 13 1.32 13 2 C14.65 2 16.3 2 18 2 C17.01 2.495 17.01 2.495 16 3 C15.67 3.99 15.34 4.98 15 6 C12.12529507 7.43735246 10.18105412 7.38172649 7 7 C4.8125 4.625 4.8125 4.625 3 2 C2.01 1.34 1.02 0.68 0 0 Z " fill="#1797A2" transform="translate(332,281)"/>
<path d="M0 0 C7.6700283 0.4302337 14.65896942 1.74231361 22 4 C22 4.99 22 5.98 22 7 C20.35 7 18.7 7 17 7 C17 6.34 17 5.68 17 5 C10.30386804 4.202163 3.74233419 3.87089147 -3 4 C-3 3.34 -3 2.68 -3 2 C-2.01 2 -1.02 2 0 2 C0 1.34 0 0.68 0 0 Z " fill="#32A5A6" transform="translate(339,116)"/>
<path d="M0 0 C-2.51478831 1.32532061 -5.03581987 2.63520231 -7.5625 3.9375 C-8.26697266 4.31068359 -8.97144531 4.68386719 -9.69726562 5.06835938 C-14.20668054 7.37501862 -17.94491389 8.58151061 -23 9 C-22.61479436 6.46089803 -22.29902057 5.27248877 -20.37109375 3.515625 C-19.73300781 3.09796875 -19.09492188 2.6803125 -18.4375 2.25 C-17.79683594 1.82203125 -17.15617187 1.3940625 -16.49609375 0.953125 C-16.00238281 0.63859375 -15.50867188 0.3240625 -15 0 C-14.34 0.33 -13.68 0.66 -13 1 C-13.99 2.32 -14.98 3.64 -16 5 C-14.02 4.67 -12.04 4.34 -10 4 C-10 3.34 -10 2.68 -10 2 C-3.375 -1.125 -3.375 -1.125 0 0 Z " fill="#2F5257" transform="translate(381,274)"/>
<path d="M0 0 C0.99 0.33 1.98 0.66 3 1 C3 1.66 3 2.32 3 3 C3.99 3 4.98 3 6 3 C6.33773437 3.97582031 6.67546875 4.95164063 7.0234375 5.95703125 C7.47373825 7.24226463 7.92427126 8.52741665 8.375 9.8125 C8.59671875 10.45509766 8.8184375 11.09769531 9.046875 11.75976562 C10.1239885 14.81686717 11.19061861 17.28592791 13 20 C12.625 22.1875 12.625 22.1875 12 24 C0 3.87319885 0 3.87319885 0 0 Z " fill="#20747B" transform="translate(234,150)"/>
<path d="M0 0 C4.98682054 1.87547816 6.43919111 5.63922173 8.8046875 10.15625 C10.33434635 13.79543836 10.51621967 16.12835247 10 20 C9.67 19.01 9.34 18.02 9 17 C8.34 17 7.68 17 7 17 C6.67 14.69 6.34 12.38 6 10 C5.34 10 4.68 10 4 10 C3.67 8.35 3.34 6.7 3 5 C1.68 5.33 0.36 5.66 -1 6 C-1.625 4.125 -1.625 4.125 -2 2 C-1.34 1.34 -0.68 0.68 0 0 Z " fill="#36394E" transform="translate(370,176)"/>
<path d="M0 0 C0.66 0 1.32 0 2 0 C2 0.66 2 1.32 2 2 C2.90878906 2.07347656 2.90878906 2.07347656 3.8359375 2.1484375 C9.99760464 2.6982478 15.95885951 3.67609049 22 5 C22 5.66 22 6.32 22 7 C22.66 7.33 23.32 7.66 24 8 C17.52432348 7.37922374 11.28837757 6.33183542 4.9375 4.9375 C4.07189453 4.75123047 3.20628906 4.56496094 2.31445312 4.37304688 C0.20877549 3.91933733 -1.89574007 3.46023996 -4 3 C-2.68 2.67 -1.36 2.34 0 2 C0 1.34 0 0.68 0 0 Z " fill="#1A1C2B" transform="translate(294,257)"/>
<path d="M0 0 C6.95041086 -0.26618595 13.23514355 0.3879491 20 2 C20 2.66 20 3.32 20 4 C14.14029719 4.98326079 9.67277905 5.22461923 4 3 C2.64589342 2.02831428 1.30806531 1.03283248 0 0 Z " fill="#258391" transform="translate(298,272)"/>
<path d="M0 0 C1.47329407 4.64087631 0.4220032 8.44630189 -1 13 C-1.515625 13.845625 -2.03125 14.69125 -2.5625 15.5625 C-4.59540553 19.00960068 -4.66349367 22.02922531 -5 26 C-6.32 26.33 -7.64 26.66 -9 27 C-6.75424696 17.70179445 -3.45076489 8.90051656 0 0 Z " fill="#1C5860" transform="translate(206,263)"/>
<path d="M0 0 C3.69081659 3.69081659 4.12150831 7.92522087 4.1953125 12.9609375 C4.18213884 14.76572911 4.15846488 16.57047059 4.125 18.375 C4.11597656 19.30183594 4.10695313 20.22867188 4.09765625 21.18359375 C4.07422937 23.45600077 4.04142748 25.7278618 4 28 C3.34 28 2.68 28 2 28 C1.34 18.76 0.68 9.52 0 0 Z " fill="#1F656B" transform="translate(395,190)"/>
<path d="M0 0 C1.77117187 0.12568359 1.77117187 0.12568359 3.578125 0.25390625 C5.13539497 0.35709884 6.6926879 0.4599453 8.25 0.5625 C9.41595703 0.64661133 9.41595703 0.64661133 10.60546875 0.73242188 C11.35957031 0.78076172 12.11367188 0.82910156 12.890625 0.87890625 C13.58188477 0.9260376 14.27314453 0.97316895 14.98535156 1.02172852 C17.14255424 0.99846251 18.92047892 0.54670262 21 0 C21.99 0 22.98 0 24 0 C24 0.66 24 1.32 24 2 C25.32 2.66 26.64 3.32 28 4 C25.27769437 5.36115281 23.98974753 4.60597567 21 4 C17.38983318 3.72383728 13.76855168 3.60910386 10.15039062 3.48242188 C6.33107747 3.30407509 3.25019402 3.12943746 0 1 C0 0.67 0 0.34 0 0 Z " fill="#26293B" transform="translate(310,179)"/>
<path d="M0 0 C1.2077558 3.62326739 0.54311128 4.64146369 -1 8 C-3.64 8.33 -6.28 8.66 -9 9 C-7.87548273 6.0280615 -6.77706209 3.66559313 -5 1 C-2.375 0.3125 -2.375 0.3125 0 0 Z " fill="#129FA9" transform="translate(383,265)"/>
<path d="M0 0 C0.33 0 0.66 0 1 0 C2.4967767 13.12713617 1.1490269 25.17896191 -2 38 C-2.33 38 -2.66 38 -3 38 C-2.85936865 35.70800823 -2.71234057 33.41640814 -2.5625 31.125 C-2.48128906 29.84882813 -2.40007812 28.57265625 -2.31640625 27.2578125 C-2 24 -2 24 -1 22 C-0.84777027 20.33434251 -0.75082785 18.66343504 -0.68359375 16.9921875 C-0.64169922 16.00605469 -0.59980469 15.01992187 -0.55664062 14.00390625 C-0.51732422 12.97136719 -0.47800781 11.93882812 -0.4375 10.875 C-0.39431641 9.83472656 -0.35113281 8.79445312 -0.30664062 7.72265625 C-0.2003712 5.14857472 -0.09833417 2.57439492 0 0 Z " fill="#2C6569" transform="translate(418,192)"/>
<path d="M0 0 C-0.99 0.495 -0.99 0.495 -2 1 C-2.33 1.99 -2.66 2.98 -3 4 C-4.10408203 4.12181641 -4.10408203 4.12181641 -5.23046875 4.24609375 C-8.61329376 5.16694738 -9.93451218 6.52329267 -12.3125 9.0625 C-13.00988281 9.79597656 -13.70726562 10.52945313 -14.42578125 11.28515625 C-15.20501953 12.13400391 -15.20501953 12.13400391 -16 13 C-16.66 12.67 -17.32 12.34 -18 12 C-13.62277327 5.39407541 -8.84545016 -1.07217578 0 0 Z " fill="#252937" transform="translate(290,234)"/>
<path d="M0 0 C2.87193228 1.43596614 3.26369727 3.34998674 4.5625 6.25 C4.99691406 7.20390625 5.43132812 8.1578125 5.87890625 9.140625 C6.92190645 11.80082064 7.64362031 14.16849013 8 17 C7.67 17.66 7.34 18.32 7 19 C6.34 19 5.68 19 5 19 C2.3700049 12.80072584 0.8182146 6.6820859 0 0 Z " fill="#2F959C" transform="translate(406,158)"/>
<path d="M0 0 C0.66 0 1.32 0 2 0 C1.32116957 3.11547441 0.25893098 5.85137721 -1.0625 8.75 C-1.60583984 9.94882813 -1.60583984 9.94882813 -2.16015625 11.171875 C-2.43730469 11.77515625 -2.71445312 12.3784375 -3 13 C-3.99 13 -4.98 13 -6 13 C-6.33 14.32 -6.66 15.64 -7 17 C-7.33 16.01 -7.66 15.02 -8 14 C-6.22445479 10.51013529 -4.75847687 7.75847687 -2 5 C-1.29289322 3.35008418 -0.62056011 1.68437744 0 0 Z " fill="#25989C" transform="translate(413,230)"/>
<path d="M0 0 C0.99 0.33 1.98 0.66 3 1 C1.39852104 3.10626032 -0.20604875 5.21003738 -1.8125 7.3125 C-2.26431641 7.90740234 -2.71613281 8.50230469 -3.18164062 9.11523438 C-7.84324247 15.20594043 -7.84324247 15.20594043 -10 17 C-10.66 17 -11.32 17 -12 17 C-10.69386058 13.08158173 -9.16870152 10.67359191 -6 8 C-5.34 8 -4.68 8 -4 8 C-3.896875 7.360625 -3.79375 6.72125 -3.6875 6.0625 C-3.460625 5.381875 -3.23375 4.70125 -3 4 C-2.01 3.67 -1.02 3.34 0 3 C0 2.01 0 1.02 0 0 Z " fill="#25283A" transform="translate(374,237)"/>
<path d="M0 0 C6.6 0 13.2 0 20 0 C20 0.66 20 1.32 20 2 C23.63 2.66 27.26 3.32 31 4 C30.67 4.66 30.34 5.32 30 6 C26.44237271 5.32972239 22.98968416 4.45870444 19.5 3.5 C13.03120655 1.85061858 6.65317309 1.31119681 0 1 C0 0.67 0 0.34 0 0 Z " fill="#1A575D" transform="translate(329,141)"/>
<path d="M0 0 C1.45922693 0.11409593 2.91740598 0.24165544 4.375 0.375 C5.59316406 0.47941406 5.59316406 0.47941406 6.8359375 0.5859375 C9 1 9 1 11 3 C9.58480285 5.0343459 8.45017877 5.90410393 6.01953125 6.421875 C4.01823046 6.66273952 2.0090056 6.83532741 0 7 C0.99 5.68 1.98 4.36 3 3 C2.01 2.67 1.02 2.34 0 2 C0 1.34 0 0.68 0 0 Z " fill="#2A6265" transform="translate(345,281)"/>
<path d="M0 0 C5.28 0.33 10.56 0.66 16 1 C16 1.66 16 2.32 16 3 C17.65 3 19.3 3 21 3 C21 3.33 21 3.66 21 4 C14.07 3.67 7.14 3.34 0 3 C0 2.01 0 1.02 0 0 Z " fill="#191A28" transform="translate(269,255)"/>
<path d="M0 0 C0.33 0 0.66 0 1 0 C1 2.97 1 5.94 1 9 C0.34 9 -0.32 9 -1 9 C-2.485 14.445 -2.485 14.445 -4 20 C-4.66 20 -5.32 20 -6 20 C-5.36757331 15.27497299 -4.08186437 11.09429803 -2.4375 6.625 C-2.20353516 5.98433594 -1.96957031 5.34367188 -1.72851562 4.68359375 C-1.15700381 3.1206839 -0.57915771 1.56009273 0 0 Z " fill="#19555B" transform="translate(214,241)"/>
<path d="M0 0 C4.21814817 3.9700218 7.61227103 8.30840284 11 13 C10.67 13.66 10.34 14.32 10 15 C8.70145279 13.92492371 7.41141639 12.83956264 6.125 11.75 C5.40570313 11.14671875 4.68640625 10.5434375 3.9453125 9.921875 C1.98009571 7.98033552 0.94963007 6.57899535 0 4 C0 2.68 0 1.36 0 0 Z " fill="#3D969A" transform="translate(395,143)"/>
<path d="M0 0 C2.08203125 0.4140625 2.08203125 0.4140625 4 1 C-6.37357631 7.70387244 -6.37357631 7.70387244 -12 8 C-12 7.34 -12 6.68 -12 6 C-11.34 6 -10.68 6 -10 6 C-10 5.34 -10 4.68 -10 4 C-8.906875 3.896875 -7.81375 3.79375 -6.6875 3.6875 C-2.8550979 2.97298435 -2.47994558 2.59803822 0 0 Z " fill="#1C1D2E" transform="translate(357,255)"/>
<path d="M0 0 C4.96196513 4.80190174 4.96196513 4.80190174 5.125 9.9375 C5.13533675 12.70257934 4.89702441 14.30892678 4 17 C3.01 17 2.02 17 1 17 C1.144375 16.484375 1.28875 15.96875 1.4375 15.4375 C2.15809901 12.31490429 2.57266439 9.17449308 3 6 C2.01 5.67 1.02 5.34 0 5 C0 3.35 0 1.7 0 0 Z " fill="#1D9EA4" transform="translate(331,200)"/>
<path d="M0 0 C1.65 0 3.3 0 5 0 C5.66 2.31 6.32 4.62 7 7 C3.26512223 6.5020163 1.18762365 6.12508244 -2 4 C-1.34 2.68 -0.68 1.36 0 0 Z " fill="#21929C" transform="translate(361,144)"/>
<path d="M0 0 C1.4650113 4.50371428 -0.13630407 7.58005406 -1.9375 11.75 C-2.22818359 12.44738281 -2.51886719 13.14476562 -2.81835938 13.86328125 C-3.53551703 15.57975695 -4.26643402 17.29047232 -5 19 C-5.33 19 -5.66 19 -6 19 C-5.505 14.545 -5.505 14.545 -5 10 C-4.34 10 -3.68 10 -3 10 C-2.95101562 9.36191406 -2.90203125 8.72382813 -2.8515625 8.06640625 C-2.77679688 7.24011719 -2.70203125 6.41382813 -2.625 5.5625 C-2.55539063 4.73878906 -2.48578125 3.91507813 -2.4140625 3.06640625 C-2.27742187 2.38449219 -2.14078125 1.70257813 -2 1 C-1.34 0.67 -0.68 0.34 0 0 Z " fill="#266065" transform="translate(254,219)"/>
<path d="M0 0 C2.475 0.495 2.475 0.495 5 1 C7.29612756 10.41002278 7.29612756 10.41002278 7 15 C4.80541184 12.80541184 4.39193015 11.54316278 3.5 8.625 C2.56291909 5.57948703 1.49274932 2.81820777 0 0 Z " fill="#1F6D72" transform="translate(388,175)"/>
<path d="M0 0 C0.66 0 1.32 0 2 0 C2.0825 0.61875 2.165 1.2375 2.25 1.875 C2.80607909 4.17381462 2.80607909 4.17381462 5 5.1875 C5.66 5.455625 6.32 5.72375 7 6 C8 7 8 7 8.0625 10.0625 C8.041875 11.031875 8.02125 12.00125 8 13 C8.66 13.33 9.32 13.66 10 14 C9.34 14.66 8.68 15.32 8 16 C5.36 10.72 2.72 5.44 0 0 Z " fill="#1D6A6F" transform="translate(225,134)"/>
<path d="M0 0 C2.40569331 3.05783908 4.36189615 6.22457996 6.25 9.625 C6.79140625 10.58664063 7.3328125 11.54828125 7.890625 12.5390625 C8.25671875 13.35117188 8.6228125 14.16328125 9 15 C8.67 15.66 8.34 16.32 8 17 C7.34 16.67 6.68 16.34 6 16 C6 14.68 6 13.36 6 12 C5.34 12 4.68 12 4 12 C3.34 10.02 2.68 8.04 2 6 C1.34 6 0.68 6 0 6 C0 4.02 0 2.04 0 0 Z " fill="#33747A" transform="translate(245,202)"/>
<path d="M0 0 C1.88671875 0.26171875 1.88671875 0.26171875 4 1 C5.08203125 2.70703125 5.08203125 2.70703125 5.8125 4.8125 C6.19341797 5.84310547 6.19341797 5.84310547 6.58203125 6.89453125 C7.05333812 9.26868457 6.75212833 10.72314894 6 13 C4.99491199 11.21118264 3.99607264 9.41885304 3 7.625 C2.1646875 6.12839844 2.1646875 6.12839844 1.3125 4.6015625 C0 2 0 2 0 0 Z " fill="#1F686C" transform="translate(247,174)"/>
<path d="M0 0 C0.99 0.33 1.98 0.66 3 1 C1.75482035 2.13033298 0.50363348 3.25405036 -0.75 4.375 C-1.44609375 5.00148438 -2.1421875 5.62796875 -2.859375 6.2734375 C-4.84508688 7.87505183 -6.67954093 8.96520068 -9 10 C-9 8.68 -9 7.36 -9 6 C-8.01 6 -7.02 6 -6 6 C-5.67 5.01 -5.34 4.02 -5 3 C-3.68 3 -2.36 3 -1 3 C-0.67 2.01 -0.34 1.02 0 0 Z " fill="#246A70" transform="translate(391,263)"/>
<path d="M0 0 C0.66 0 1.32 0 2 0 C8.84883721 7.73255814 8.84883721 7.73255814 9.1875 12.8125 C9.125625 13.534375 9.06375 14.25625 9 15 C4.95808535 10.50898372 2.56325559 5.41015011 0 0 Z " fill="#1E5E67" transform="translate(259,197)"/>
<path d="M0 0 C2.4375 0.75 2.4375 0.75 5 2 C5.8125 4.125 5.8125 4.125 6 6 C7.32 6 8.64 6 10 6 C10 6.66 10 7.32 10 8 C10.99 8.33 11.98 8.66 13 9 C11.2265625 9.66796875 11.2265625 9.66796875 9 10 C7.1484375 8.92578125 7.1484375 8.92578125 5.375 7.3125 C4.78460938 6.79300781 4.19421875 6.27351562 3.5859375 5.73828125 C1.93581514 3.9296496 0.98203226 2.23144954 0 0 Z " fill="#226067" transform="translate(268,212)"/>
<path d="M0 0 C2 3 2 3 2 5 C2.99 5 3.98 5 5 5 C5.25 11.625 5.25 11.625 3 15 C2.49363393 13.25183142 1.99515381 11.50137737 1.5 9.75 C1.2215625 8.77546875 0.943125 7.8009375 0.65625 6.796875 C0 4 0 4 0 0 Z " fill="#1DA1A5" transform="translate(394,181)"/>
<path d="M0 0 C4.97306516 0.49730652 8.63799813 1.55302334 13 4 C12.67 4.66 12.34 5.32 12 6 C10.55903414 5.57405412 9.12231288 5.13373367 7.6875 4.6875 C6.88699219 4.44386719 6.08648437 4.20023438 5.26171875 3.94921875 C2.90035427 2.95817977 1.66120007 1.91925057 0 0 Z " fill="#3F445A" transform="translate(345,159)"/>
<path d="M0 0 C1.98 0 3.96 0 6 0 C6 0.66 6 1.32 6 2 C6.66 2 7.32 2 8 2 C8 2.99 8 3.98 8 5 C8.99 5.33 9.98 5.66 11 6 C10.67 6.99 10.34 7.98 10 9 C6.49352499 6.1310659 3.14718888 3.2682346 0 0 Z " fill="#2A7C81" transform="translate(366,151)"/>
<path d="M0 0 C4.71354196 1.57118065 7.29212409 4.93818614 10 9 C8.68 9.33 7.36 9.66 6 10 C6 9.01 6 8.02 6 7 C5.34 7 4.68 7 4 7 C4 6.34 4 5.68 4 5 C2.68 4.67 1.36 4.34 0 4 C0 2.68 0 1.36 0 0 Z " fill="#389296" transform="translate(385,134)"/>
<path d="M0 0 C0.99 0 1.98 0 3 0 C2.67 1.98 2.34 3.96 2 6 C1.34 6 0.68 6 0 6 C-0.33 7.32 -0.66 8.64 -1 10 C-1.66 9.67 -2.32 9.34 -3 9 C-2.69181644 7.68647977 -2.37832335 6.37420428 -2.0625 5.0625 C-1.88847656 4.33160156 -1.71445312 3.60070312 -1.53515625 2.84765625 C-1 1 -1 1 0 0 Z " fill="#22868E" transform="translate(386,251)"/>
<path d="M0 0 C3 1 3 1 4.1328125 2.890625 C7.4576768 10.79699524 7.4576768 10.79699524 8 15 C5.31874582 12.61753661 3.88576541 10.1454496 2.3125 6.9375 C1.87550781 6.05964844 1.43851563 5.18179688 0.98828125 4.27734375 C0 2 0 2 0 0 Z " fill="#206165" transform="translate(234,150)"/>
<path d="M0 0 C3 2 3 2 4 5 C4.06740865 6.56118428 4.08514456 8.1250252 4.0625 9.6875 C4.05347656 10.49574219 4.04445313 11.30398437 4.03515625 12.13671875 C4.02355469 12.75160156 4.01195312 13.36648437 4 14 C3.01 14.495 3.01 14.495 2 15 C1.34 10.05 0.68 5.1 0 0 Z " fill="#418386" transform="translate(334,200)"/>
<path d="M0 0 C3.63 0.33 7.26 0.66 11 1 C7.71508627 3.18994248 6.16904361 3.35277339 2.3125 3.625 C0.82169922 3.73714844 0.82169922 3.73714844 -0.69921875 3.8515625 C-1.83810547 3.92503906 -1.83810547 3.92503906 -3 4 C-3 3.34 -3 2.68 -3 2 C-2.01 2 -1.02 2 0 2 C0 1.34 0 0.68 0 0 Z " fill="#28999C" transform="translate(339,116)"/>
<path d="M0 0 C0.66 0 1.32 0 2 0 C3.6875 2.3125 3.6875 2.3125 5 5 C4.67 5.99 4.34 6.98 4 8 C2.35 7.67 0.7 7.34 -1 7 C-0.67 4.69 -0.34 2.38 0 0 Z " fill="#0E96A5" transform="translate(234,192)"/>
<path d="M0 0 C-1.78881736 1.00508801 -3.58114696 2.00392736 -5.375 3 C-6.37273437 3.556875 -7.37046875 4.11375 -8.3984375 4.6875 C-11 6 -11 6 -13 6 C-13 5.34 -13 4.68 -13 4 C-12.01 4 -11.02 4 -10 4 C-10 3.34 -10 2.68 -10 2 C-3.375 -1.125 -3.375 -1.125 0 0 Z " fill="#245963" transform="translate(381,274)"/>
<path d="M0 0 C4.29 0 8.58 0 13 0 C13 0.66 13 1.32 13 2 C7.96488101 3.0070238 4.76052962 2.97387813 0 1 C0 0.67 0 0.34 0 0 Z " fill="#25949C" transform="translate(332,281)"/>
<path d="M0 0 C0.99 0.33 1.98 0.66 3 1 C4.62323754 4.75907641 5.23994929 7.92086213 5 12 C0 4.5 0 4.5 0 0 Z " fill="#272C3B" transform="translate(348,189)"/>
<path d="M0 0 C0.99 0 1.98 0 3 0 C2.01 3.3 1.02 6.6 0 10 C-0.66 9.67 -1.32 9.34 -2 9 C-1.51421457 5.87709365 -1.0013988 3.00419641 0 0 Z " fill="#2B6872" transform="translate(240,253)"/>
<path d="M0 0 C0.66 0.33 1.32 0.66 2 1 C0.55746343 4.36591866 -1.33264727 6.51047079 -4 9 C-4.66 8.67 -5.32 8.34 -6 8 C-4.02 5.36 -2.04 2.72 0 0 Z " fill="#1C202E" transform="translate(278,238)"/>
<path d="M0 0 C0.33 0 0.66 0 1 0 C0.64766839 5.4611399 0.64766839 5.4611399 0 8 C-2.0625 9.5 -2.0625 9.5 -4 10 C-3.52371389 5.8086822 -2.89509268 3.13635041 0 0 Z " fill="#138C94" transform="translate(222,228)"/>
<path d="M0 0 C0.99 0.99 1.98 1.98 3 3 C2.75921963 6.85248595 2.15973378 8.76039934 0 12 C0 8.04 0 4.08 0 0 Z " fill="#202332" transform="translate(353,203)"/>
<path d="M0 0 C3.21764451 4.82646677 4.36261136 10.19821824 4 16 C0.98656045 12.67148232 0.55332456 10.18117187 0.3125 5.75 C0.24675781 4.67234375 0.18101562 3.5946875 0.11328125 2.484375 C0.07589844 1.66453125 0.03851563 0.8446875 0 0 Z " fill="#32787D" transform="translate(414,175)"/>
<path d="M0 0 C0.66 0 1.32 0 2 0 C3.49821059 3.37097383 4 5.20442119 4 9 C3.01 8.67 2.02 8.34 1 8 C-0.1875 4.4375 -0.1875 4.4375 -1 1 C-0.67 0.67 -0.34 0.34 0 0 Z " fill="#23A8B0" transform="translate(393,143)"/>
<path d="M0 0 C0.66 0 1.32 0 2 0 C2.66 3.3 3.32 6.6 4 10 C3.01 10 2.02 10 1 10 C0.67 6.7 0.34 3.4 0 0 Z " fill="#368C90" transform="translate(266,144)"/>
<path d="M0 0 C0.33 0.66 0.66 1.32 1 2 C2.65 1.67 4.3 1.34 6 1 C6 1.99 6 2.98 6 4 C3.36 4.33 0.72 4.66 -2 5 C-1.34 3.35 -0.68 1.7 0 0 Z " fill="#2296A0" transform="translate(376,269)"/>
<path d="M0 0 C0.33 0 0.66 0 1 0 C1 2.97 1 5.94 1 9 C-0.98 9.99 -0.98 9.99 -3 11 C-2.69078116 9.54096742 -2.37751201 8.08279278 -2.0625 6.625 C-1.88847656 5.81289062 -1.71445313 5.00078125 -1.53515625 4.1640625 C-1 2 -1 2 0 0 Z " fill="#1B5A66" transform="translate(233,187)"/>
<path d="M0 0 C2.475 0.495 2.475 0.495 5 1 C5 2.32 5 3.64 5 5 C6.65 5.33 8.3 5.66 10 6 C6.89953913 7.03348696 5.94389782 7.17755913 3 6 C2.67 5.01 2.34 4.02 2 3 C1.34 2.67 0.68 2.34 0 2 C0 1.34 0 0.68 0 0 Z " fill="#2E979B" transform="translate(361,121)"/>
<path d="M0 0 C0.66 0.33 1.32 0.66 2 1 C1.04882866 2.1725131 0.08882991 3.33787015 -0.875 4.5 C-1.40867187 5.1496875 -1.94234375 5.799375 -2.4921875 6.46875 C-2.98976563 6.9740625 -3.48734375 7.479375 -4 8 C-4.66 8 -5.32 8 -6 8 C-4.73058503 4.08597051 -3.48832306 2.20927127 0 0 Z " fill="#1C1D2F" transform="translate(368,246)"/>
<path d="M0 0 C1.32 0 2.64 0 4 0 C4.33 1.32 4.66 2.64 5 4 C4.34 4 3.68 4 3 4 C3.33 5.32 3.66 6.64 4 8 C1.44971017 6.72485508 1.06918289 5.59658703 0 3 C0 2.01 0 1.02 0 0 Z " fill="#237D86" transform="translate(240,198)"/>
<path d="M0 0 C2.05078125 0.03255208 4.1015625 0.06510417 6.15234375 0.09765625 C4.01379525 2.23620475 3.01959061 2.52420688 0.15234375 3.09765625 C0.48234375 3.75765625 0.81234375 4.41765625 1.15234375 5.09765625 C0.21484375 7.22265625 0.21484375 7.22265625 -0.84765625 9.09765625 C-1.20888506 7.78708232 -1.56145936 6.47412001 -1.91015625 5.16015625 C-2.20599609 4.06380859 -2.20599609 4.06380859 -2.5078125 2.9453125 C-2.61996094 2.33558594 -2.73210937 1.72585937 -2.84765625 1.09765625 C-1.84765625 0.09765625 -1.84765625 0.09765625 0 0 Z " fill="#129BA5" transform="translate(223.84765625,117.90234375)"/>
<path d="M0 0 C1.60407328 -0.02708567 3.2082785 -0.04643483 4.8125 -0.0625 C5.70582031 -0.07410156 6.59914063 -0.08570313 7.51953125 -0.09765625 C10 0 10 0 13 1 C13 1.66 13 2.32 13 3 C8.65535464 2.39174965 4.32448133 1.73832608 0 1 C0 0.67 0 0.34 0 0 Z " fill="#4098A0" transform="translate(298,272)"/>
<path d="M0 0 C0.98120464 3.05263664 0.98120464 4.94736336 0 8 C-1.32 7.34 -2.64 6.68 -4 6 C-2.68 4.02 -1.36 2.04 0 0 Z " fill="#257176" transform="translate(383,256)"/>
<path d="M0 0 C0.99 0 1.98 0 3 0 C1.64978174 4.41889613 -0.26115668 6.34345343 -4 9 C-3.67 7.35 -3.34 5.7 -3 4 C-2.01 4 -1.02 4 0 4 C0 2.68 0 1.36 0 0 Z " fill="#276E73" transform="translate(400,252)"/>
<path d="M0 0 C0.66 0 1.32 0 2 0 C1.33989524 2.84550012 0.48275034 5.52325999 -0.5625 8.25 C-0.83191406 8.95640625 -1.10132813 9.6628125 -1.37890625 10.390625 C-1.68634766 11.18726563 -1.68634766 11.18726563 -2 12 C-3.15957207 8.52128379 -2.77456651 7.65780355 -1.5625 4.3125 C-1.13130859 3.10013672 -1.13130859 3.10013672 -0.69140625 1.86328125 C-0.46324219 1.24839844 -0.23507812 0.63351563 0 0 Z " fill="#205E65" transform="translate(413,230)"/>
<path d="M0 0 C1.37432457 3.81756824 0.67975039 7.07255329 0 11 C-0.99 11.33 -1.98 11.66 -3 12 C-2.68950274 10.56206608 -2.3765224 9.1246682 -2.0625 7.6875 C-1.88847656 6.88699219 -1.71445313 6.08648437 -1.53515625 5.26171875 C-1 3 -1 3 0 0 Z " fill="#144F56" transform="translate(229,198)"/>
<path d="M0 0 C1.5 1.1875 1.5 1.1875 3 3 C3.1875 5.6875 3.1875 5.6875 3 8 C1.68 7.34 0.36 6.68 -1 6 C-0.67 4.02 -0.34 2.04 0 0 Z " fill="#2D9296" transform="translate(275,167)"/>
<path d="M0 0 C0.99 0 1.98 0 3 0 C3.33 0.99 3.66 1.98 4 3 C3.67 3.66 3.34 4.32 3 5 C3.66 5 4.32 5 5 5 C5 6.65 5 8.3 5 10 C3 9 3 9 2.1484375 6.93359375 C1.89320313 6.10988281 1.63796875 5.28617188 1.375 4.4375 C1.11460937 3.61121094 0.85421875 2.78492188 0.5859375 1.93359375 C0.39257812 1.29550781 0.19921875 0.65742188 0 0 Z " fill="#18969C" transform="translate(242,160)"/>
<path d="M0 0 C3.03869411 1.51934706 3.64410306 3.98004772 5 7 C5 7.66 5 8.32 5 9 C3.0625 8.4375 3.0625 8.4375 1 7 C0.25 3.375 0.25 3.375 0 0 Z " fill="#357F88" transform="translate(406,158)"/>
<path d="M0 0 C0.66 1.32 1.32 2.64 2 4 C0.35 5.65 -1.3 7.3 -3 9 C-3.66 8.67 -4.32 8.34 -5 8 C-3.35 5.36 -1.7 2.72 0 0 Z " fill="#222333" transform="translate(352,217)"/>
<path d="M0 0 C1.36741555 2.25221384 2.04066478 3.52557758 1.8125 6.1875 C1.4103125 7.0846875 1.4103125 7.0846875 1 8 C0.01 8.33 -0.98 8.66 -2 9 C-1.125 2.25 -1.125 2.25 0 0 Z " fill="#1A5F68" transform="translate(225,210)"/>
<path d="M0 0 C5.75 1.75 5.75 1.75 8 4 C6.35 3.67 4.7 3.34 3 3 C2.67 3.66 2.34 4.32 2 5 C1.01 4.34 0.02 3.68 -1 3 C-0.67 2.01 -0.34 1.02 0 0 Z " fill="#169EA4" transform="translate(290,193)"/>
<path d="M0 0 C3.68754757 0.49831724 5.60490662 1.10067643 8 4 C4.37673261 5.2077558 3.35853631 4.54311128 0 3 C0 2.01 0 1.02 0 0 Z " fill="#3D8790" transform="translate(366,123)"/>
<path d="M0 0 C3.3 0.33 6.6 0.66 10 1 C10 1.33 10 1.66 10 2 C6.7 2.33 3.4 2.66 0 3 C0 2.01 0 1.02 0 0 Z " fill="#216979" transform="translate(294,270)"/>
<path d="M0 0 C0.66 0.33 1.32 0.66 2 1 C-0.625 5.875 -0.625 5.875 -4 7 C-4.66 6.34 -5.32 5.68 -6 5 C-5.34 4.34 -4.68 3.68 -4 3 C-3.01 3 -2.02 3 -1 3 C-0.67 2.01 -0.34 1.02 0 0 Z " fill="#2E3247" transform="translate(350,223)"/>
<path d="M0 0 C0.66 0 1.32 0 2 0 C2 1.32 2 2.64 2 4 C2.99 4.33 3.98 4.66 5 5 C4 8 4 8 2 10 C1.34 6.7 0.68 3.4 0 0 Z " fill="#2E9398" transform="translate(249,214)"/>
<path d="M0 0 C2.31 0.33 4.62 0.66 7 1 C7.66 2.98 8.32 4.96 9 7 C8.443125 6.38125 7.88625 5.7625 7.3125 5.125 C4.93354822 2.93893621 3.03642904 2.01214301 0 1 C0 0.67 0 0.34 0 0 Z " fill="#459BA0" transform="translate(326,197)"/>
<path d="M0 0 C0.66 0 1.32 0 2 0 C2.33 1.65 2.66 3.3 3 5 C1.68 5.33 0.36 5.66 -1 6 C-1.625 4.125 -1.625 4.125 -2 2 C-1.34 1.34 -0.68 0.68 0 0 Z " fill="#3A445F" transform="translate(370,176)"/>
<path d="M0 0 C0.66666667 1.33333333 1.33333333 2.66666667 2 4 C2.53625 5.03125 3.0725 6.0625 3.625 7.125 C5 10 5 10 5 12 C4.01 11.67 3.02 11.34 2 11 C0.37676246 7.24092359 -0.23994929 4.07913787 0 0 Z " fill="#326E75" transform="translate(270,154)"/>
<path d="M0 0 C0.66 0 1.32 0 2 0 C2.33 1.32 2.66 2.64 3 4 C1.02 4.33 -0.96 4.66 -3 5 C-1.125 1.125 -1.125 1.125 0 0 Z " fill="#358A96" transform="translate(368,274)"/>
<path d="M0 0 C2.5 1.3125 2.5 1.3125 5 3 C5 3.99 5 4.98 5 6 C4.01 6 3.02 6 2 6 C0 3 0 3 0 0 Z " fill="#424762" transform="translate(364,169)"/>
<path d="M0 0 C1.32 0.33 2.64 0.66 4 1 C4.33 3.64 4.66 6.28 5 9 C1.96130589 7.48065294 1.35589694 5.01995228 0 2 C0 1.34 0 0.68 0 0 Z " fill="#1E202B" transform="translate(291,157)"/>
<path d="M0 0 C2.66666667 1.33333333 5.33333333 2.66666667 8 4 C5.39417629 4.93065133 4.35801776 5.14917407 1.75 4.0625 C1.1725 3.711875 0.595 3.36125 0 3 C0 2.01 0 1.02 0 0 Z " fill="#337079" transform="translate(292,191)"/>
</svg>
